<svg width="50" height="45" viewBox="0 0 50 45" fill="none" xmlns="http://www.w3.org/2000/svg">
<path d="M42.75 7.875H6.75C4.95979 7.875 3.2429 8.58616 1.97703 9.85203C0.711159 11.1179 0 12.8348 0 14.625V38.25C0 40.0402 0.711159 41.7571 1.97703 43.023C3.2429 44.2888 4.95979 45 6.75 45H42.75C44.5402 45 46.2571 44.2888 47.523 43.023C48.7888 41.7571 49.5 40.0402 49.5 38.25V14.625C49.5 12.8348 48.7888 11.1179 47.523 9.85203C46.2571 8.58616 44.5402 7.875 42.75 7.875ZM45 38.25C45 38.8467 44.7629 39.419 44.341 39.841C43.919 40.2629 43.3467 40.5 42.75 40.5H6.75C6.15326 40.5 5.58097 40.2629 5.15901 39.841C4.73705 39.419 4.5 38.8467 4.5 38.25V14.625C4.5 14.0283 4.73705 13.456 5.15901 13.034C5.58097 12.6121 6.15326 12.375 6.75 12.375H42.75C43.3467 12.375 43.919 12.6121 44.341 13.034C44.7629 13.456 45 14.0283 45 14.625V38.25ZM13.5 2.25C13.5 1.65326 13.7371 1.08097 14.159 0.65901C14.581 0.237053 15.1533 0 15.75 0H33.75C34.3467 0 34.919 0.237053 35.341 0.65901C35.7629 1.08097 36 1.65326 36 2.25C36 2.84674 35.7629 3.41903 35.341 3.84099C34.919 4.26295 34.3467 4.5 33.75 4.5H15.75C15.1533 4.5 14.581 4.26295 14.159 3.84099C13.7371 3.41903 13.5 2.84674 13.5 2.25ZM27 24.1875H31.5V28.6875H27V33.1875H22.5V28.6875H18V24.1875H22.5V19.6875H27V24.1875Z" fill="#5F5F61"/>
</svg>
