<svg width="37" height="48" viewBox="0 0 37 48" fill="none" xmlns="http://www.w3.org/2000/svg">
<path d="M10.8438 7.5625H5.375C2.95875 7.5625 1 9.52125 1 11.9375V42.5625C1 44.9788 2.95875 46.9375 5.375 46.9375H31.625C34.0413 46.9375 36 44.9788 36 42.5625V11.9375C36 9.52125 34.0413 7.5625 31.625 7.5625H26.1562" stroke="#5F5F61" stroke-width="2" stroke-linecap="round"/>
<path d="M9.74997 12.8125V8.65625C9.74997 8.05219 10.2397 7.5625 10.8437 7.5625C11.4478 7.5625 11.9467 7.07259 12.0502 6.47746C12.3743 4.61312 13.6306 1 18.5 1C23.3693 1 24.6256 4.61312 24.9498 6.47746C25.0533 7.07259 25.5523 7.5625 26.1562 7.5625C26.7602 7.5625 27.25 8.05219 27.25 8.65625V12.8125C27.25 13.5374 26.6624 14.125 25.9375 14.125H11.0625C10.3376 14.125 9.74997 13.5374 9.74997 12.8125Z" stroke="#5F5F61" stroke-width="2" stroke-linecap="round"/>
</svg>
