<svg width="50" height="41" viewBox="0 0 50 41" fill="none" xmlns="http://www.w3.org/2000/svg">
<path d="M42.4105 39.446C44.3234 39.446 45.8743 38.1886 45.8743 36.6375C45.8743 35.0865 44.3234 33.8291 42.4105 33.8291C40.4976 33.8291 38.9468 35.0865 38.9468 36.6375C38.9468 38.1886 40.4976 39.446 42.4105 39.446Z" fill="#5F5F61" stroke="#5F5F61" stroke-width="3" stroke-linecap="round" stroke-linejoin="round"/>
<path d="M19.3189 39.446C21.2318 39.446 22.7826 38.1886 22.7826 36.6375C22.7826 35.0865 21.2318 33.8291 19.3189 33.8291C17.4059 33.8291 15.8551 35.0865 15.8551 36.6375C15.8551 38.1886 17.4059 39.446 19.3189 39.446Z" fill="#5F5F61" stroke="#5F5F61" stroke-width="3" stroke-linecap="round" stroke-linejoin="round"/>
<path d="M8.9275 5.7446H48.1833L43.565 26.3399H13.5458L8.9275 5.7446ZM8.9275 5.7446C8.54263 4.49639 6.61833 2 2 2" stroke="#5F5F61" stroke-width="3" stroke-linecap="round" stroke-linejoin="round"/>
<path d="M43.5651 26.3398H13.5459H9.46047C5.3402 26.3398 3.15466 27.8025 3.15466 30.0844C3.15466 32.3664 5.3402 33.829 9.46047 33.829H42.4105" stroke="#5F5F61" stroke-width="3" stroke-linecap="round" stroke-linejoin="round"/>
</svg>
