<svg width="35" height="31" viewBox="0 0 35 31" fill="none" xmlns="http://www.w3.org/2000/svg">
<path d="M0 3.416C0 2.51002 0.368749 1.64115 1.02513 1.00052C1.6815 0.359899 2.57174 0 3.5 0H31.5C32.4283 0 33.3185 0.359899 33.9749 1.00052C34.6312 1.64115 35 2.51002 35 3.416V22.204C35 23.11 34.6312 23.9788 33.9749 24.6195C33.3185 25.2601 32.4283 25.62 31.5 25.62H23.4745L18.7372 30.2435C18.4091 30.5637 17.964 30.7436 17.5 30.7436C17.036 30.7436 16.5909 30.5637 16.2628 30.2435L11.5255 25.62H3.5C2.57174 25.62 1.6815 25.2601 1.02513 24.6195C0.368749 23.9788 0 23.11 0 22.204V3.416ZM31.5 3.416H3.5V22.204H12.25C12.7141 22.2041 13.1591 22.3841 13.4872 22.7044L17.5 26.6209L21.5128 22.7044C21.8409 22.3841 22.2859 22.2041 22.75 22.204H31.5V3.416ZM7 9.394C7 8.94101 7.18437 8.50657 7.51256 8.18626C7.84075 7.86595 8.28587 7.686 8.75 7.686H26.25C26.7141 7.686 27.1593 7.86595 27.4874 8.18626C27.8156 8.50657 28 8.94101 28 9.394C28 9.84698 27.8156 10.2814 27.4874 10.6017C27.1593 10.922 26.7141 11.102 26.25 11.102H8.75C8.28587 11.102 7.84075 10.922 7.51256 10.6017C7.18437 10.2814 7 9.84698 7 9.394ZM7 16.226C7 15.773 7.18437 15.3386 7.51256 15.0183C7.84075 14.6979 8.28587 14.518 8.75 14.518H19.25C19.7141 14.518 20.1592 14.6979 20.4874 15.0183C20.8156 15.3386 21 15.773 21 16.226C21 16.679 20.8156 17.1134 20.4874 17.4337C20.1592 17.754 19.7141 17.934 19.25 17.934H8.75C8.28587 17.934 7.84075 17.754 7.51256 17.4337C7.18437 17.1134 7 16.679 7 16.226Z" fill="#3790C2"/>
</svg>
