<svg width="80" height="58" viewBox="0 0 80 58" fill="none" xmlns="http://www.w3.org/2000/svg">
<path d="M39.9999 37.6667C44.7865 37.6667 48.6666 33.7866 48.6666 29C48.6666 24.2134 44.7865 20.3333 39.9999 20.3333C35.2133 20.3333 31.3333 24.2134 31.3333 29C31.3333 33.7866 35.2133 37.6667 39.9999 37.6667Z" stroke="#5F5F61" stroke-width="5" stroke-linecap="round" stroke-linejoin="round"/>
<path d="M74.4395 23.4759C77.2172 26.7363 77.5157 31.4814 74.8576 34.84C66.3368 45.6064 53.676 55 40 55C26.324 55 13.6631 45.6065 5.14243 34.8401C2.48434 31.4815 2.78291 26.7363 5.56066 23.4759C14.5498 12.925 25.2082 3 40 3C54.7919 3 65.4504 12.9249 74.4395 23.4759Z" stroke="#5F5F61" stroke-width="5" stroke-linecap="round" stroke-linejoin="round"/>
</svg>
