<svg width="65" height="55" viewBox="0 0 65 55" fill="none" xmlns="http://www.w3.org/2000/svg">
<path d="M35.4571 1.24905H24.0078C22.7137 1.24905 21.655 2.3014 21.655 3.58767V43.8113C21.655 45.0975 22.7137 46.1499 24.0078 46.1499H35.4571C36.7511 46.1499 37.81 45.0977 37.81 43.8113V3.58787C37.81 2.3016 36.7511 1.24905 35.4571 1.24905ZM29.7323 42.5393C27.2177 42.5393 25.1716 40.5057 25.1716 38.006C25.1716 35.5064 27.2175 33.4724 29.7323 33.4724C32.2472 33.4724 34.2935 35.5062 34.2935 38.006C34.2935 40.5057 32.2472 42.5393 29.7323 42.5393ZM35.6926 22.9202C35.6926 23.7778 34.9868 24.4792 34.1242 24.4792H25.3411C24.4784 24.4792 23.7726 23.7778 23.7726 22.9202V6.80982C23.7726 5.95237 24.4784 5.2508 25.3411 5.2508H34.1242C34.9868 5.2508 35.6926 5.95237 35.6926 6.80982V22.9202Z" fill="#5F5F61"/>
<path d="M30.6742 10.1434H25.7863C25.3531 10.1434 25.002 9.79417 25.002 9.36399C25.002 8.93343 25.3533 8.5842 25.7863 8.5842H30.6742C31.1074 8.5842 31.4586 8.93343 31.4586 9.36399C31.4586 9.79436 31.1072 10.1434 30.6742 10.1434Z" fill="#5F5F61"/>
<path d="M16.4153 1.24905H4.96579C3.67175 1.24905 2.61304 2.3014 2.61304 3.58767V43.8113C2.61304 45.0975 3.67175 46.1499 4.96579 46.1499H16.4153C17.7093 46.1499 18.7679 45.0977 18.7679 43.8113V3.58787C18.7679 2.3016 17.7093 1.24905 16.4153 1.24905ZM10.6904 42.5393C8.17573 42.5393 6.12943 40.5057 6.12943 38.006C6.12943 35.5064 8.17553 33.4724 10.6904 33.4724C13.2054 33.4724 15.2515 35.5062 15.2515 38.006C15.2513 40.5057 13.2054 42.5393 10.6904 42.5393ZM16.6504 22.9202C16.6504 23.7778 15.9446 24.4792 15.0818 24.4792H6.29889C5.43626 24.4792 4.73045 23.7778 4.73045 22.9202V6.80982C4.73045 5.95237 5.43626 5.2508 6.29889 5.2508H15.0818C15.9446 5.2508 16.6504 5.95237 16.6504 6.80982V22.9202Z" fill="#5F5F61"/>
<path d="M11.6322 10.1434H6.74403C6.31087 10.1434 5.95972 9.79417 5.95972 9.36399C5.95972 8.93343 6.31107 8.5842 6.74403 8.5842H11.6322C12.0654 8.5842 12.4163 8.93343 12.4163 9.36399C12.4163 9.79436 12.0654 10.1434 11.6322 10.1434Z" fill="#5F5F61"/>
<path d="M11.6322 13.8526H6.74403C6.31087 13.8526 5.95972 13.5033 5.95972 13.073C5.95972 12.6422 6.31107 12.2935 6.74403 12.2935H11.6322C12.0654 12.2935 12.4163 12.6424 12.4163 13.073C12.4163 13.5035 12.0654 13.8526 11.6322 13.8526Z" fill="#5F5F61"/>
<path d="M11.6322 17.5616H6.74403C6.31087 17.5616 5.95972 17.2126 5.95972 16.7822C5.95972 16.3516 6.31107 16.0024 6.74403 16.0024H11.6322C12.0654 16.0024 12.4163 16.3516 12.4163 16.7822C12.4163 17.2126 12.0654 17.5616 11.6322 17.5616Z" fill="#5F5F61"/>
<path d="M62.3598 41.7608L56.3113 1.98905C56.1178 0.717263 54.9129 -0.16607 53.6335 0.0263201L42.312 1.7275C41.0325 1.9197 40.1443 3.1175 40.3374 4.38928L46.3861 44.1611C46.5797 45.4329 47.7845 46.3162 49.0642 46.1238L60.3851 44.4226C61.6645 44.2304 62.5536 43.0326 62.3598 41.7608ZM47.1236 24.4983C46.2703 24.6265 45.4673 24.0376 45.3381 23.1898L42.9158 7.26045C42.787 6.41247 43.3793 5.61413 44.2324 5.48567L52.9168 4.18067C53.7697 4.05279 54.5729 4.64155 54.7019 5.48934L57.1246 21.4189C57.2534 22.2669 56.6611 23.0654 55.808 23.1935L47.1236 24.4983ZM57.1707 39.9111C56.4476 40.886 55.3859 41.5223 54.1813 41.7033C53.9543 41.7375 53.7232 41.7546 53.4949 41.7546C51.2611 41.7546 49.3244 40.0969 48.9902 37.8984C48.8079 36.7009 49.106 35.5047 49.8289 34.5302C50.552 33.5555 51.6136 32.919 52.8181 32.7382C53.0454 32.704 53.2761 32.6866 53.5044 32.6866C55.7384 32.6866 57.6753 34.3445 58.0094 36.5431C58.1917 37.7403 57.8938 38.9366 57.1707 39.9111Z" fill="#5F5F61"/>
<path d="M45.0154 8.46039C44.6342 8.46039 44.2997 8.18339 44.241 7.79726C44.1765 7.37153 44.4711 6.9742 44.8992 6.90987L49.7324 6.18358C50.1621 6.11868 50.5603 6.41209 50.6252 6.83782C50.6899 7.26355 50.3951 7.66089 49.967 7.72521L45.1338 8.4515C45.0938 8.45769 45.0543 8.46039 45.0154 8.46039Z" fill="#5F5F61"/>
<path d="M45.5625 12.0573C45.181 12.0573 44.8467 11.7803 44.7883 11.3939C44.7233 10.9682 45.0181 10.5711 45.4463 10.5068L52.9936 9.37269C53.4229 9.3074 53.8215 9.6014 53.8862 10.0269C53.9511 10.4527 53.6563 10.85 53.228 10.9143L45.6808 12.0482C45.641 12.0544 45.6013 12.0573 45.5625 12.0573Z" fill="#5F5F61"/>
<path d="M65 53.2615C65 54.2177 64.213 55 63.251 55H1.74897C0.787036 55 0 54.2177 0 53.2615V51.7373C0 50.7811 0.787036 49.9988 1.74897 49.9988H63.251C64.213 49.9988 65 50.7811 65 51.7373V53.2615Z" fill="#5F5F61"/>
</svg>
