<svg width="214" height="296" viewBox="0 0 214 296" fill="none" xmlns="http://www.w3.org/2000/svg">
<path d="M141.952 67.2526L191.956 95.9363C195.527 97.972 198.385 102.965 198.385 107.037V205.061L202.628 207.501V106.654C202.628 100.908 198.528 93.8865 193.52 90.9855L141.717 61.2733C136.716 58.4362 132.609 60.7555 132.609 66.5008V167.341L136.895 169.795V70.1323C136.923 66.9618 139.188 65.6638 141.952 67.2526Z" fill="#E0E0E0"/>
<path d="M103.371 286.303C103.371 281.139 107.028 274.855 111.536 272.273C113.9 270.911 116.022 270.854 117.515 271.847L123.015 274.968L111.314 294.722L105.857 291.601C104.335 290.764 103.371 288.941 103.371 286.303Z" fill="#cecece"/>
<path d="M117.251 275.543C112.743 278.125 109.086 284.409 109.086 289.573C109.086 294.736 112.743 296.836 117.251 294.254C121.758 291.672 125.423 285.388 125.423 280.217C125.423 275.046 121.758 272.954 117.251 275.543Z" fill="#cecece"/>
<path d="M120.015 283.309C120.015 281.295 118.772 280.366 117.251 281.238C115.729 282.111 114.486 284.459 114.486 286.48C114.486 288.501 115.722 289.431 117.251 288.551C118.779 287.672 120.015 285.331 120.015 283.309Z" fill="#cecece"/>
<path d="M107.686 266.918C107.686 266.918 107.686 276.139 112.129 279.437C112.965 280.054 113.85 280.479 114.372 280.912C115.508 281.848 114.758 283.565 113.379 284.302C111.379 285.366 100.485 282.487 95.8706 273.663L107.686 266.918Z" fill="#F0F0F0"/>
<path d="M111.914 269.351C111.914 269.351 111.914 278.571 116.357 281.87C117.193 282.487 118.079 282.912 118.608 283.345C119.736 284.281 118.986 286.005 117.607 286.735C115.607 287.799 104.714 284.92 100.099 276.096L111.914 269.351Z" fill="#FAFAFA"/>
<path d="M117.251 283.998C117.022 284.145 116.832 284.344 116.695 284.578C116.558 284.812 116.48 285.075 116.465 285.345C116.465 285.842 116.815 286.054 117.251 285.792C117.478 285.644 117.666 285.444 117.802 285.21C117.937 284.976 118.015 284.714 118.029 284.444C118.029 283.955 117.679 283.749 117.251 283.998Z" fill="#cecece"/>
<path d="M191.978 235.51C191.978 230.34 195.635 224.055 200.142 221.474C202.507 220.119 204.628 220.055 206.121 221.055L211.622 224.176L199.921 243.923L194.463 240.809C192.942 239.972 191.978 238.142 191.978 235.51Z" fill="#cecece"/>
<path d="M205.857 224.743C201.349 227.325 197.692 233.61 197.692 238.78C197.692 243.951 201.349 246.043 205.857 243.462C210.364 240.88 214 234.595 214 229.425C214 224.254 210.364 222.162 205.857 224.743Z" fill="#cecece"/>
<path d="M208.621 232.517C208.621 230.496 207.378 229.567 205.857 230.446C204.335 231.326 203.092 233.666 203.092 235.688C203.092 237.709 204.328 238.631 205.857 237.759C207.385 236.886 208.621 234.539 208.621 232.517Z" fill="#cecece"/>
<path d="M196.292 216.154C196.292 216.154 196.292 225.375 200.735 228.673C201.571 229.29 202.456 229.716 202.978 230.148C204.114 231.084 203.364 232.808 201.985 233.539C199.985 234.603 189.091 231.723 184.477 222.899L196.292 216.154Z" fill="#F0F0F0"/>
<path d="M200.521 218.53C200.521 218.53 200.521 227.751 204.964 231.049C205.8 231.666 206.685 232.092 207.214 232.531C208.343 233.461 207.593 235.184 206.214 235.915C204.214 236.979 193.32 234.099 188.706 225.275L200.521 218.53Z" fill="#FAFAFA"/>
<path d="M205.857 233.177C205.628 233.324 205.438 233.523 205.301 233.757C205.165 233.991 205.086 234.254 205.071 234.525C205.071 235.014 205.421 235.234 205.857 234.971C206.084 234.823 206.273 234.624 206.408 234.39C206.543 234.156 206.621 233.893 206.636 233.624C206.636 233.177 206.286 232.957 205.857 233.177Z" fill="#cecece"/>
<path d="M206.95 209.948L128.373 164.894L0 238.482L78.5695 283.544L206.95 209.948Z" fill="#cecece"/>
<path d="M206.95 209.948V214.849L78.5698 288.445V283.544L206.95 209.948Z" fill="#cecece"/>
<path d="M0 238.482V243.384L78.5695 288.445V283.544L0 238.482Z" fill="#cecece"/>
<path opacity="0.1" d="M195.528 210.16L128.137 248.81L59.4043 209.458L126.98 170.908L195.528 210.16Z" fill="black"/>
<path d="M193.235 164.206L131.516 128.762L66.2905 166.248L128.009 201.691L193.235 164.206Z" fill="#cecece"/>
<path opacity="0.7" d="M193.235 164.206L131.516 128.762L66.2905 166.248L128.009 201.691L193.235 164.206Z" fill="white"/>
<path d="M128.009 244.526L193.235 207.047V164.206L128.009 201.691V244.526Z" fill="#cecece"/>
<path opacity="0.6" d="M128.009 244.526L193.235 207.047V164.206L128.009 201.691V244.526Z" fill="white"/>
<path d="M135.209 230.34C135.011 230.341 134.816 230.289 134.645 230.191C134.4 230.019 134.205 229.786 134.08 229.516C133.955 229.246 133.903 228.948 133.931 228.652V224.112V223.779L134.166 223.821L137.738 221.729V226.793C137.731 227.445 137.567 228.086 137.26 228.662C136.953 229.238 136.512 229.733 135.973 230.106C135.744 230.248 135.48 230.329 135.209 230.34ZM134.495 224.453V228.652C134.47 228.846 134.494 229.044 134.565 229.228C134.636 229.411 134.752 229.574 134.902 229.701C135.029 229.752 135.166 229.771 135.302 229.756C135.438 229.741 135.568 229.693 135.681 229.616C136.13 229.288 136.497 228.861 136.754 228.369C137.01 227.877 137.149 227.333 137.159 226.779V226.41H135.831L135.573 224.63L134.495 224.453ZM136.331 225.871H137.159V222.736L135.016 223.984L136.074 224.176L136.331 225.871Z" fill="#cecece"/>
<path d="M135.852 233.936C135.776 233.936 135.704 233.906 135.65 233.853C135.597 233.8 135.566 233.727 135.566 233.652V229.836C135.566 229.761 135.597 229.689 135.65 229.636C135.704 229.582 135.776 229.552 135.852 229.552C135.928 229.552 136.001 229.582 136.054 229.636C136.108 229.689 136.138 229.761 136.138 229.836V233.652C136.138 233.727 136.108 233.8 136.054 233.853C136.001 233.906 135.928 233.936 135.852 233.936Z" fill="#cecece"/>
<path d="M134.188 234.893C134.137 234.895 134.087 234.882 134.043 234.857C133.999 234.832 133.962 234.796 133.938 234.752C133.918 234.719 133.905 234.684 133.9 234.647C133.895 234.61 133.897 234.572 133.906 234.536C133.915 234.5 133.932 234.465 133.954 234.436C133.977 234.406 134.005 234.38 134.038 234.361L137.381 232.446C137.413 232.427 137.45 232.415 137.487 232.41C137.525 232.405 137.563 232.408 137.6 232.418C137.636 232.428 137.67 232.445 137.7 232.468C137.73 232.491 137.755 232.52 137.774 232.553C137.81 232.619 137.819 232.696 137.799 232.769C137.779 232.842 137.732 232.904 137.666 232.943L134.33 234.858C134.286 234.879 134.237 234.891 134.188 234.893Z" fill="#cecece"/>
<path d="M146.082 228.325C145.97 228.325 145.86 228.298 145.76 228.247C145.644 228.171 145.55 228.065 145.49 227.94C145.43 227.815 145.405 227.676 145.417 227.538V226.793C145.428 226.725 145.463 226.663 145.516 226.617C145.569 226.572 145.637 226.548 145.707 226.548C145.776 226.548 145.844 226.572 145.897 226.617C145.95 226.663 145.985 226.725 145.996 226.793V227.574C145.996 227.694 145.996 227.751 146.053 227.765C146.11 227.779 146.139 227.765 146.239 227.715C146.415 227.55 146.554 227.35 146.647 227.127C146.739 226.905 146.783 226.665 146.775 226.424V221.353C146.775 221.278 146.805 221.206 146.858 221.152C146.912 221.099 146.985 221.069 147.06 221.069C147.136 221.069 147.209 221.099 147.262 221.152C147.316 221.206 147.346 221.278 147.346 221.353V226.424C147.36 226.764 147.294 227.102 147.152 227.411C147.011 227.72 146.798 227.992 146.532 228.205C146.395 228.284 146.24 228.326 146.082 228.325Z" fill="#cecece"/>
<path d="M143.053 223.892V223.396C143.122 222.13 143.491 220.898 144.128 219.8C144.766 218.703 145.656 217.769 146.724 217.076C147.106 216.753 147.579 216.555 148.078 216.51C148.578 216.464 149.079 216.573 149.513 216.822C149.947 217.071 150.294 217.447 150.504 217.899C150.715 218.351 150.779 218.856 150.689 219.346V219.509L143.053 223.892ZM148.446 217.126C147.939 217.148 147.446 217.302 147.017 217.573C146.106 218.168 145.334 218.951 144.754 219.869C144.175 220.787 143.802 221.818 143.66 222.892L150.089 219.183C150.111 218.824 150.042 218.465 149.887 218.14C149.732 217.815 149.497 217.534 149.203 217.324C148.973 217.193 148.712 217.124 148.446 217.126Z" fill="#cecece"/>
<path d="M156.396 222.481C156.32 222.481 156.248 222.451 156.194 222.398C156.14 222.344 156.11 222.272 156.11 222.197V212.487C156.121 212.418 156.156 212.356 156.209 212.311C156.262 212.266 156.33 212.241 156.4 212.241C156.469 212.241 156.537 212.266 156.59 212.311C156.643 212.356 156.678 212.418 156.689 212.487V222.197C156.689 222.235 156.681 222.272 156.667 222.307C156.652 222.342 156.63 222.374 156.603 222.4C156.575 222.427 156.543 222.447 156.508 222.461C156.472 222.475 156.434 222.482 156.396 222.481Z" fill="#cecece"/>
<path d="M155.561 214.735C155.523 214.743 155.484 214.743 155.446 214.735C155.411 214.721 155.38 214.699 155.353 214.672C155.327 214.645 155.306 214.614 155.292 214.579C155.278 214.544 155.271 214.506 155.272 214.469C155.273 214.431 155.281 214.394 155.296 214.359L156.318 212.012L157.461 213.324C157.51 213.381 157.534 213.456 157.528 213.531C157.522 213.606 157.486 213.676 157.429 213.725C157.371 213.774 157.296 213.798 157.22 213.792C157.144 213.786 157.074 213.75 157.025 213.693L156.482 213.076L155.825 214.586C155.799 214.633 155.76 214.671 155.714 214.698C155.667 214.724 155.614 214.737 155.561 214.735Z" fill="#cecece"/>
<path d="M159.061 220.977C159.022 220.978 158.985 220.971 158.949 220.958C158.914 220.944 158.881 220.923 158.854 220.897C158.827 220.87 158.805 220.839 158.79 220.804C158.775 220.769 158.768 220.731 158.768 220.693V210.983C158.761 210.942 158.764 210.899 158.775 210.859C158.787 210.818 158.807 210.781 158.834 210.749C158.862 210.717 158.896 210.691 158.934 210.674C158.973 210.656 159.015 210.647 159.057 210.647C159.099 210.647 159.141 210.656 159.18 210.674C159.218 210.691 159.252 210.717 159.28 210.749C159.307 210.781 159.327 210.818 159.339 210.859C159.35 210.899 159.353 210.942 159.346 210.983V220.693C159.346 220.769 159.316 220.841 159.263 220.894C159.209 220.947 159.136 220.977 159.061 220.977Z" fill="#cecece"/>
<path d="M158.217 213.196C158.18 213.204 158.141 213.204 158.103 213.196C158.068 213.182 158.037 213.16 158.01 213.133C157.984 213.106 157.963 213.074 157.949 213.039C157.935 213.004 157.928 212.967 157.929 212.929C157.929 212.892 157.938 212.855 157.953 212.82L158.996 210.48L160.139 211.785C160.164 211.813 160.183 211.846 160.195 211.882C160.207 211.917 160.212 211.955 160.209 211.993C160.206 212.03 160.196 212.067 160.179 212.101C160.162 212.134 160.139 212.164 160.11 212.189C160.082 212.214 160.049 212.233 160.013 212.244C159.977 212.256 159.939 212.261 159.901 212.259C159.863 212.256 159.826 212.246 159.792 212.229C159.758 212.212 159.728 212.189 159.703 212.161L159.16 211.536L158.503 213.054C158.474 213.103 158.432 213.142 158.381 213.167C158.331 213.193 158.274 213.203 158.217 213.196Z" fill="#cecece"/>
<path d="M128.009 244.526L66.2905 209.089V166.248L128.009 201.691V244.526Z" fill="#cecece"/>
<path opacity="0.5" d="M128.009 244.526L66.2905 209.089V166.248L128.009 201.691V244.526Z" fill="white"/>
<path d="M92.1987 187.612L96.4276 190.031V183.519L92.1987 181.101V187.612Z" fill="#cecece"/>
<path d="M96.4276 183.527L161.653 146.041L157.425 143.615L92.1987 181.101L96.4276 183.527Z" fill="#cecece"/>
<path d="M94.1138 179.994L98.3355 182.42L100.693 181.072L96.4711 178.647L94.1138 179.994Z" fill="#cecece"/>
<path d="M161.854 151.502L144.574 161.383C144.26 161.567 144.345 161.9 144.76 162.141L164.268 173.327C164.466 173.443 164.688 173.513 164.917 173.531C165.146 173.55 165.376 173.516 165.59 173.433L182.869 163.546C183.184 163.369 183.098 163.028 182.684 162.787L163.14 151.609C162.947 151.496 162.731 151.429 162.509 151.41C162.286 151.392 162.062 151.423 161.854 151.502Z" fill="#FAFAFA"/>
<path d="M170.547 168.319C170.61 168.319 170.671 168.302 170.725 168.271C170.779 168.24 170.823 168.196 170.854 168.142C170.901 168.061 170.914 167.965 170.89 167.875C170.866 167.784 170.807 167.707 170.726 167.66L154.525 158.375C154.444 158.339 154.353 158.334 154.269 158.361C154.185 158.387 154.113 158.444 154.069 158.52C154.024 158.596 154.01 158.686 154.028 158.771C154.046 158.857 154.096 158.933 154.168 158.985L170.369 168.27C170.422 168.304 170.484 168.322 170.547 168.319Z" fill="#E0E0E0"/>
<path d="M168.747 169.341C168.825 169.34 168.901 169.314 168.962 169.266C169.024 169.219 169.068 169.153 169.089 169.078C169.109 169.003 169.104 168.924 169.074 168.853C169.045 168.781 168.993 168.721 168.926 168.681L152.732 159.411C152.649 159.364 152.551 159.351 152.459 159.375C152.367 159.399 152.288 159.457 152.239 159.538C152.194 159.622 152.183 159.719 152.209 159.81C152.234 159.901 152.293 159.979 152.375 160.028L168.569 169.305C168.624 169.334 168.686 169.346 168.747 169.341Z" fill="#E0E0E0"/>
<path d="M166.947 170.362C167.025 170.361 167.101 170.335 167.162 170.288C167.224 170.24 167.268 170.174 167.289 170.1C167.309 170.025 167.304 169.946 167.275 169.874C167.245 169.802 167.193 169.742 167.126 169.703L150.932 160.418C150.85 160.371 150.752 160.358 150.66 160.383C150.568 160.408 150.49 160.467 150.443 160.549C150.395 160.631 150.383 160.728 150.407 160.819C150.432 160.91 150.492 160.988 150.575 161.035L166.769 170.32C166.824 170.347 166.885 170.362 166.947 170.362Z" fill="#E0E0E0"/>
<path d="M165.147 171.391C165.21 171.391 165.272 171.375 165.327 171.343C165.383 171.312 165.429 171.267 165.461 171.213C165.506 171.13 165.517 171.033 165.491 170.942C165.466 170.851 165.407 170.773 165.325 170.724L149.131 161.446C149.091 161.417 149.045 161.397 148.996 161.386C148.947 161.376 148.896 161.376 148.847 161.386C148.799 161.396 148.752 161.417 148.712 161.446C148.671 161.475 148.637 161.512 148.612 161.555C148.587 161.598 148.571 161.645 148.566 161.695C148.561 161.744 148.566 161.794 148.581 161.841C148.596 161.889 148.621 161.932 148.655 161.969C148.688 162.006 148.728 162.036 148.774 162.056L164.968 171.341C165.022 171.374 165.083 171.391 165.147 171.391Z" fill="#E0E0E0"/>
<path d="M181.205 163.099L180.57 162.737L173.198 166.965L173.826 167.326L181.205 163.099Z" fill="#cecece"/>
<path d="M178.64 161.631L177.548 161.007L170.168 165.241L171.261 165.858L178.64 161.631Z" fill="#cecece"/>
<path d="M176.077 160.155L175.448 159.794L168.069 164.028L168.697 164.383L176.077 160.155Z" fill="#cecece"/>
<path d="M174.154 159.042L172.883 158.326L165.504 162.553L166.775 163.269L174.154 159.042Z" fill="#cecece"/>
<path d="M170.947 157.219L170.319 156.857L162.939 161.085L163.568 161.446L170.947 157.219Z" fill="#cecece"/>
<path d="M169.118 156.148L167.754 155.382L160.375 159.616L161.739 160.382L169.118 156.148Z" fill="#cecece"/>
<path d="M165.826 154.275L165.19 153.914L157.818 158.148L158.446 158.503L165.826 154.275Z" fill="#cecece"/>
<path d="M164.368 153.431L164.054 153.254L156.675 157.481L156.989 157.666L164.368 153.431Z" fill="#cecece"/>
<path d="M166.955 154.971L166.64 154.786L159.261 159.014L159.576 159.198L166.955 154.971Z" fill="#cecece"/>
<path d="M172.147 157.914L171.833 157.73L164.454 161.964L164.768 162.141L172.147 157.914Z" fill="#cecece"/>
<path d="M174.969 159.538L174.655 159.354L167.276 163.588L167.59 163.766L174.969 159.538Z" fill="#cecece"/>
<path d="M176.969 160.723L176.654 160.538L169.275 164.773L169.59 164.95L176.969 160.723Z" fill="#cecece"/>
<path d="M179.776 162.269L179.462 162.092L172.083 166.319L172.397 166.497L179.776 162.269Z" fill="#cecece"/>
<path d="M163.261 152.807L162.625 152.445L155.253 156.673L155.882 157.035L163.261 152.807Z" fill="#cecece"/>
<path d="M173.198 202.784V213.53C173.198 213.941 173.491 214.111 173.855 213.905L190.749 204.217C190.939 204.094 191.097 203.929 191.21 203.734C191.323 203.539 191.388 203.32 191.399 203.096V192.343C191.399 191.932 191.106 191.761 190.749 191.967L173.855 201.663C173.664 201.785 173.504 201.95 173.39 202.145C173.276 202.339 173.21 202.559 173.198 202.784Z" fill="#FAFAFA"/>
<path d="M190.349 193.506L189.806 193.818V203.585L190.349 203.273V193.506Z" fill="#cecece"/>
<path d="M188.127 194.783L187.184 195.329V205.096L188.127 204.55V194.783Z" fill="#cecece"/>
<path d="M185.905 196.053L185.362 196.365V206.132L185.905 205.82V196.053Z" fill="#cecece"/>
<path d="M184.234 196.996L183.141 197.634V207.408L184.234 206.763V196.996Z" fill="#cecece"/>
<path d="M181.463 198.599L180.92 198.911V208.678L181.463 208.366V198.599Z" fill="#cecece"/>
<path d="M179.869 199.493L178.698 200.181V209.948L179.869 209.26V199.493Z" fill="#cecece"/>
<path d="M177.026 201.138L176.483 201.457V211.224L177.026 210.912V201.138Z" fill="#cecece"/>
<path d="M175.754 201.855L175.483 202.011V211.778L175.754 211.629V201.855Z" fill="#cecece"/>
<path d="M178.041 200.606L177.762 200.769V210.536L178.041 210.38V200.606Z" fill="#cecece"/>
<path d="M182.512 198.01L182.241 198.166V207.933L182.512 207.777V198.01Z" fill="#cecece"/>
<path d="M184.962 196.613L184.684 196.769V206.536L184.962 206.38V196.613Z" fill="#cecece"/>
<path d="M186.72 195.648L186.449 195.804V205.571L186.72 205.415V195.648Z" fill="#cecece"/>
<path d="M189.105 194.208L188.834 194.365V204.131L189.105 203.975V194.208Z" fill="#cecece"/>
<path d="M174.805 202.415L174.262 202.727V212.494L174.805 212.182V202.415Z" fill="#cecece"/>
<path opacity="0.1" d="M189.041 163.298L129.158 197.663L65.8184 161.276L125.694 126.911L189.041 163.298Z" fill="black"/>
<path d="M64.1689 114.74L121.616 81.7505L186.613 119.095L129.173 152.084L64.1689 114.74Z" fill="#cecece"/>
<path opacity="0.3" d="M64.1689 114.74L121.616 81.7505L186.613 119.095L129.173 152.084L64.1689 114.74Z" fill="white"/>
<path d="M91.699 103.058L108.993 112.938C109.307 113.115 109.222 113.456 108.807 113.697L89.2988 124.875C89.1023 124.994 88.8807 125.066 88.6515 125.086C88.4222 125.106 88.1915 125.072 87.9773 124.989L70.6976 115.101C70.3833 114.917 70.469 114.584 70.8833 114.342L90.4203 103.164C90.6104 103.049 90.825 102.979 91.047 102.96C91.269 102.942 91.4923 102.975 91.699 103.058Z" fill="#FAFAFA"/>
<path d="M82.9772 119.875C82.9139 119.874 82.8519 119.858 82.7969 119.827C82.7419 119.796 82.6958 119.751 82.6629 119.698C82.6166 119.616 82.6049 119.519 82.6304 119.429C82.6558 119.338 82.7163 119.261 82.7986 119.215L98.9926 109.931C99.033 109.901 99.0791 109.881 99.128 109.871C99.1768 109.86 99.2274 109.86 99.2763 109.87C99.3252 109.881 99.3714 109.901 99.4119 109.93C99.4524 109.959 99.4863 109.996 99.5114 110.039C99.5365 110.082 99.5523 110.13 99.5577 110.179C99.5631 110.228 99.558 110.278 99.5428 110.326C99.5275 110.373 99.5025 110.416 99.4692 110.453C99.436 110.49 99.3953 110.52 99.3497 110.541L83.1558 119.825C83.1021 119.858 83.0402 119.875 82.9772 119.875Z" fill="#E0E0E0"/>
<path d="M84.7702 120.896C84.7078 120.896 84.6467 120.879 84.5928 120.848C84.5389 120.817 84.4942 120.773 84.463 120.719C84.4161 120.638 84.4033 120.542 84.4274 120.452C84.4515 120.361 84.5105 120.284 84.5916 120.237L100.793 110.952C100.833 110.923 100.879 110.902 100.928 110.892C100.977 110.882 101.027 110.882 101.076 110.892C101.125 110.902 101.171 110.922 101.212 110.951C101.252 110.981 101.286 111.018 101.312 111.061C101.337 111.103 101.352 111.151 101.358 111.2C101.363 111.25 101.358 111.3 101.343 111.347C101.328 111.394 101.303 111.438 101.269 111.475C101.236 111.512 101.195 111.542 101.15 111.562L84.9487 120.847C84.8958 120.881 84.8334 120.898 84.7702 120.896Z" fill="#E0E0E0"/>
<path d="M86.5703 121.918C86.4924 121.917 86.4168 121.891 86.3552 121.843C86.2936 121.796 86.2493 121.73 86.229 121.655C86.2088 121.58 86.2138 121.501 86.2431 121.429C86.2725 121.358 86.3247 121.297 86.3917 121.258L102.564 111.973C102.604 111.949 102.649 111.934 102.695 111.927C102.742 111.921 102.789 111.923 102.834 111.935C102.88 111.947 102.922 111.968 102.959 111.996C102.996 112.025 103.027 112.06 103.05 112.101C103.097 112.183 103.11 112.28 103.086 112.372C103.062 112.463 103.003 112.542 102.921 112.59L86.7275 121.875C86.6787 121.9 86.6251 121.915 86.5703 121.918Z" fill="#E0E0E0"/>
<path d="M88.3707 122.939C88.3081 122.94 88.2464 122.924 88.1922 122.893C88.1381 122.862 88.0936 122.816 88.0636 122.762C88.0167 122.681 88.0039 122.585 88.028 122.494C88.0521 122.404 88.1111 122.327 88.1922 122.279L104.386 112.995C104.468 112.948 104.566 112.935 104.658 112.96C104.75 112.984 104.828 113.044 104.875 113.126C104.923 113.208 104.935 113.305 104.911 113.396C104.886 113.487 104.826 113.565 104.743 113.612L88.5493 122.896C88.4938 122.924 88.4328 122.939 88.3707 122.939Z" fill="#E0E0E0"/>
<path d="M72.3193 114.655L72.948 114.293L80.327 118.52L79.6913 118.882L72.3193 114.655Z" fill="#cecece"/>
<path d="M74.8838 113.179L75.9696 112.562L83.3486 116.789L82.2557 117.414L74.8838 113.179Z" fill="#cecece"/>
<path d="M77.4409 111.711L78.0767 111.349L85.4486 115.577L84.82 115.938L77.4409 111.711Z" fill="#cecece"/>
<path d="M79.3628 110.597L80.6343 109.881L88.0134 114.108L86.7419 114.825L79.3628 110.597Z" fill="#cecece"/>
<path d="M82.5698 108.767L83.1984 108.413L90.5775 112.64L89.9489 113.002L82.5698 108.767Z" fill="#cecece"/>
<path d="M84.3984 107.703L85.7628 106.937L93.1419 111.172L91.7775 111.931L84.3984 107.703Z" fill="#cecece"/>
<path d="M87.6987 105.831L88.3273 105.469L95.7064 109.697L95.0707 110.058L87.6987 105.831Z" fill="#cecece"/>
<path d="M89.1562 104.987L89.4706 104.81L96.8425 109.037L96.5282 109.214L89.1562 104.987Z" fill="#cecece"/>
<path d="M86.563 106.519L86.8773 106.342L94.2564 110.569L93.942 110.753L86.563 106.519Z" fill="#cecece"/>
<path d="M81.3696 109.47L81.6839 109.285L89.063 113.513L88.7487 113.697L81.3696 109.47Z" fill="#cecece"/>
<path d="M78.5479 111.094L78.8622 110.909L86.2412 115.144L85.9269 115.321L78.5479 111.094Z" fill="#cecece"/>
<path d="M76.5479 112.278L76.8693 112.094L84.2412 116.321L83.9269 116.506L76.5479 112.278Z" fill="#cecece"/>
<path d="M73.7407 113.825L74.0622 113.64L81.4341 117.875L81.1198 118.052L73.7407 113.825Z" fill="#cecece"/>
<path d="M90.2632 104.363L90.8918 104.001L98.2709 108.228L97.6351 108.59L90.2632 104.363Z" fill="#cecece"/>
<path d="M129.173 194.925L64.1689 157.581V114.74L129.173 152.084V194.925Z" fill="#cecece"/>
<path d="M129.173 194.925L186.613 161.936V119.095L129.173 152.084V194.925Z" fill="#cecece"/>
<path opacity="0.1" d="M129.173 194.925L186.613 161.936V119.095L129.173 152.084V194.925Z" fill="black"/>
<path d="M160.704 140.458L156.482 142.877V136.366L160.704 133.947V140.458Z" fill="#cecece"/>
<path d="M156.482 136.373L91.4775 99.0288L95.6993 96.6031L160.704 133.947L156.482 136.373Z" fill="#cecece"/>
<path d="M105.343 174.433C104.885 174.111 104.509 173.687 104.248 173.194C103.986 172.701 103.845 172.154 103.835 171.596V167.255L106.9 169.043H107.1V169.341V173.221C107.127 173.473 107.086 173.727 106.98 173.958C106.875 174.189 106.709 174.387 106.5 174.533C106.355 174.618 106.19 174.662 106.021 174.66C105.779 174.643 105.546 174.565 105.343 174.433ZM105.686 169.759L105.464 171.284H104.328V171.603C104.339 172.074 104.459 172.535 104.678 172.952C104.897 173.369 105.21 173.73 105.593 174.008C105.687 174.077 105.798 174.121 105.914 174.135C106.031 174.149 106.149 174.132 106.257 174.086C106.386 173.978 106.486 173.84 106.547 173.683C106.608 173.527 106.629 173.358 106.607 173.192V169.596L105.686 169.759ZM105.25 169.341L106.157 169.185L104.328 168.114V170.795H105.043L105.25 169.341Z" fill="#cecece"/>
<path d="M105.471 177.725C105.536 177.725 105.597 177.699 105.643 177.654C105.688 177.609 105.714 177.547 105.714 177.483V174.221C105.714 174.157 105.688 174.095 105.643 174.05C105.597 174.005 105.536 173.98 105.471 173.98C105.406 173.98 105.344 174.005 105.297 174.05C105.25 174.095 105.223 174.156 105.221 174.221V177.483C105.223 177.548 105.25 177.609 105.297 177.654C105.344 177.699 105.406 177.725 105.471 177.725Z" fill="#cecece"/>
<path d="M106.893 178.562C106.948 178.565 107.003 178.549 107.049 178.518C107.094 178.486 107.127 178.439 107.142 178.386C107.157 178.333 107.153 178.276 107.131 178.226C107.109 178.175 107.071 178.133 107.021 178.108L104.164 176.469C104.107 176.437 104.04 176.429 103.977 176.446C103.914 176.464 103.861 176.505 103.828 176.561C103.796 176.618 103.788 176.685 103.805 176.747C103.823 176.81 103.864 176.863 103.921 176.895L106.779 178.526C106.813 178.548 106.852 178.561 106.893 178.562Z" fill="#cecece"/>
<path d="M115.422 183.576C115.517 183.577 115.61 183.555 115.694 183.512C115.79 183.448 115.868 183.36 115.919 183.257C115.97 183.154 115.994 183.039 115.987 182.924V182.257C115.987 182.192 115.961 182.13 115.916 182.084C115.87 182.038 115.809 182.011 115.744 182.009C115.711 182.009 115.678 182.015 115.648 182.028C115.618 182.04 115.59 182.058 115.567 182.081C115.544 182.104 115.525 182.132 115.513 182.162C115.5 182.192 115.494 182.224 115.494 182.257V182.924C115.5 182.981 115.484 183.039 115.451 183.087C115.393 183.094 115.334 183.079 115.286 183.044C115.135 182.905 115.015 182.734 114.936 182.544C114.857 182.355 114.821 182.15 114.829 181.945V177.611C114.829 177.546 114.804 177.484 114.759 177.438C114.713 177.392 114.651 177.365 114.586 177.363C114.52 177.363 114.457 177.389 114.41 177.436C114.363 177.482 114.336 177.545 114.336 177.611V181.945C114.327 182.236 114.387 182.525 114.511 182.789C114.635 183.052 114.82 183.283 115.051 183.463C115.162 183.534 115.29 183.573 115.422 183.576Z" fill="#cecece"/>
<path d="M111.5 176.044V175.902C111.427 175.484 111.485 175.053 111.666 174.669C111.847 174.285 112.143 173.965 112.513 173.753C112.883 173.541 113.31 173.447 113.735 173.484C114.161 173.52 114.565 173.686 114.893 173.958C115.806 174.552 116.566 175.35 117.11 176.289C117.655 177.228 117.97 178.281 118.029 179.363V179.789L111.5 176.044ZM112.757 174.171C112.504 174.35 112.3 174.591 112.166 174.87C112.033 175.15 111.973 175.458 111.993 175.767L117.515 178.93C117.396 178.013 117.079 177.132 116.586 176.348C116.092 175.563 115.435 174.893 114.657 174.384C114.29 174.156 113.869 174.026 113.436 174.008C113.199 174.002 112.965 174.059 112.757 174.171Z" fill="#cecece"/>
<path d="M125.322 189.045C125.387 189.045 125.448 189.019 125.494 188.974C125.54 188.929 125.565 188.868 125.565 188.804V180.505C125.565 180.441 125.54 180.38 125.494 180.334C125.448 180.289 125.387 180.264 125.322 180.264C125.257 180.264 125.195 180.289 125.148 180.334C125.101 180.379 125.074 180.44 125.072 180.505V188.804C125.074 188.868 125.101 188.93 125.148 188.975C125.195 189.02 125.257 189.045 125.322 189.045Z" fill="#cecece"/>
<path d="M126.038 182.399C126.078 182.398 126.118 182.388 126.154 182.369C126.189 182.349 126.22 182.322 126.242 182.288C126.265 182.255 126.278 182.216 126.283 182.176C126.287 182.136 126.281 182.096 126.266 182.058L125.423 180.051L124.452 181.172C124.406 181.217 124.381 181.278 124.381 181.342C124.381 181.406 124.406 181.467 124.452 181.512C124.499 181.556 124.562 181.58 124.627 181.58C124.692 181.58 124.754 181.556 124.802 181.512L125.266 180.98L125.83 182.271C125.85 182.309 125.88 182.34 125.917 182.363C125.953 182.385 125.995 182.398 126.038 182.399Z" fill="#cecece"/>
<path d="M123.044 187.782C123.109 187.782 123.172 187.757 123.218 187.712C123.265 187.667 123.292 187.606 123.294 187.541V179.242C123.294 179.21 123.288 179.178 123.275 179.147C123.263 179.117 123.244 179.09 123.221 179.067C123.198 179.044 123.17 179.026 123.14 179.013C123.109 179.001 123.077 178.994 123.044 178.994C122.979 178.996 122.917 179.023 122.872 179.069C122.827 179.116 122.801 179.178 122.801 179.242V187.541C122.801 187.605 122.827 187.666 122.872 187.712C122.918 187.757 122.98 187.782 123.044 187.782Z" fill="#cecece"/>
<path d="M123.765 181.108C123.798 181.115 123.832 181.115 123.865 181.108C123.924 181.08 123.971 181.031 123.994 180.97C124.018 180.909 124.018 180.842 123.994 180.782L123.115 178.781L122.143 179.895C122.122 179.919 122.106 179.947 122.096 179.978C122.086 180.008 122.082 180.04 122.084 180.072C122.086 180.104 122.095 180.135 122.11 180.164C122.124 180.193 122.144 180.218 122.168 180.239C122.193 180.26 122.221 180.276 122.252 180.286C122.282 180.296 122.315 180.3 122.347 180.298C122.379 180.296 122.41 180.287 122.439 180.273C122.468 180.258 122.494 180.238 122.515 180.214L122.979 179.682L123.543 180.98C123.564 181.02 123.596 181.054 123.635 181.077C123.675 181.099 123.72 181.11 123.765 181.108Z" fill="#cecece"/>
<path d="M83.991 153.736V164.447C83.991 164.858 83.6981 165.028 83.3338 164.823L66.4684 155.155C66.2798 155.03 66.1229 154.862 66.0102 154.667C65.8974 154.471 65.8318 154.252 65.8184 154.027V143.26C65.8184 142.849 66.1112 142.679 66.4755 142.891L83.3624 152.58C83.5533 152.708 83.7102 152.88 83.8196 153.082C83.9291 153.283 83.9879 153.508 83.991 153.736Z" fill="#FAFAFA"/>
<path d="M66.8687 144.431L67.4115 144.743V154.51L66.8687 154.197V144.431Z" fill="#cecece"/>
<path d="M69.0835 145.7L70.0264 146.246V156.013L69.0835 155.467V145.7Z" fill="#cecece"/>
<path d="M71.3047 146.97L71.8476 147.282V157.049L71.3047 156.737V146.97Z" fill="#cecece"/>
<path d="M72.9761 147.913L74.069 148.559V158.325L72.9761 157.68V147.913Z" fill="#cecece"/>
<path d="M75.748 149.516L76.2909 149.828V159.595L75.748 159.283V149.516Z" fill="#cecece"/>
<path d="M77.3481 150.41L78.5125 151.098V160.872L77.3481 160.177V150.41Z" fill="#cecece"/>
<path d="M80.1914 152.062L80.7343 152.375V162.141L80.1914 161.829V152.062Z" fill="#cecece"/>
<path d="M81.4556 152.779L81.727 152.935V162.702L81.4556 162.546V152.779Z" fill="#cecece"/>
<path d="M79.1768 151.531L79.4482 151.687V161.453L79.1768 161.297V151.531Z" fill="#cecece"/>
<path d="M74.7051 148.927L74.9765 149.083V158.85L74.7051 158.694V148.927Z" fill="#cecece"/>
<path d="M72.2544 147.53L72.5258 147.686V157.453L72.2544 157.297V147.53Z" fill="#cecece"/>
<path d="M70.4907 146.565L70.7693 146.722V156.488L70.4907 156.332V146.565Z" fill="#cecece"/>
<path d="M68.104 145.133L68.3826 145.289V155.049L68.104 154.893V145.133Z" fill="#cecece"/>
<path d="M82.4053 153.332L82.9553 153.644V163.411L82.4053 163.099V153.332Z" fill="#cecece"/>
<path opacity="0.1" d="M63.1396 114.151L125.394 149.92L174.176 121.953L111.814 86.1978L63.1396 114.151Z" fill="black"/>
<path d="M60.2612 94.6242L112.493 64.685L173.426 99.6176L121.194 129.557L60.2612 94.6242Z" fill="#cecece"/>
<path opacity="0.1" d="M60.2612 94.6242L112.493 64.685L173.426 99.6176L121.194 129.557L60.2612 94.6242Z" fill="black"/>
<path d="M87.799 82.9421L105.072 92.8226C105.386 93.007 105.3 93.3403 104.886 93.5815L85.3775 104.795C85.1797 104.911 84.958 104.981 84.7291 105C84.5001 105.018 84.2699 104.985 84.0559 104.902L66.7762 94.9859C66.4619 94.8086 66.5476 94.4681 66.9619 94.227L86.4775 83.0485C86.6747 82.9309 86.8965 82.8601 87.1257 82.8417C87.355 82.8232 87.5854 82.8576 87.799 82.9421Z" fill="#FAFAFA"/>
<path d="M79.0693 99.7594C78.9914 99.7586 78.9159 99.7325 78.8542 99.6851C78.7926 99.6377 78.7483 99.5716 78.7281 99.4969C78.7078 99.4221 78.7128 99.3428 78.7422 99.2711C78.7715 99.1995 78.8237 99.1393 78.8908 99.0998L95.0847 89.8152C95.1251 89.786 95.1712 89.7655 95.2201 89.7552C95.269 89.7448 95.3195 89.7447 95.3684 89.755C95.4173 89.7652 95.4635 89.7855 95.504 89.8146C95.5445 89.8436 95.5784 89.8808 95.6036 89.9237C95.6287 89.9666 95.6444 90.0143 95.6498 90.0636C95.6552 90.113 95.6502 90.1629 95.6349 90.2101C95.6197 90.2574 95.5946 90.3009 95.5614 90.338C95.5281 90.375 95.4874 90.4047 95.4419 90.4252L79.2479 99.7098C79.1943 99.7426 79.1324 99.7598 79.0693 99.7594Z" fill="#E0E0E0"/>
<path d="M80.8696 100.781C80.7917 100.78 80.7161 100.754 80.6545 100.707C80.5929 100.659 80.5486 100.593 80.5284 100.518C80.5081 100.443 80.5131 100.364 80.5424 100.293C80.5718 100.221 80.624 100.161 80.6911 100.121L96.885 90.8365C96.9666 90.79 97.0633 90.7773 97.1543 90.8012C97.2452 90.8251 97.323 90.8837 97.3707 90.9642C97.418 91.0463 97.4309 91.1435 97.4069 91.2349C97.3829 91.3264 97.3237 91.4049 97.2421 91.4536L81.0482 100.731C80.9946 100.764 80.9327 100.781 80.8696 100.781Z" fill="#E0E0E0"/>
<path d="M82.6626 101.802C82.5847 101.801 82.5091 101.775 82.4475 101.728C82.3859 101.68 82.3416 101.614 82.3213 101.54C82.3011 101.465 82.306 101.386 82.3354 101.314C82.3648 101.242 82.417 101.182 82.484 101.143L98.678 91.8579C98.7604 91.8109 98.8582 91.7983 98.95 91.8229C99.0418 91.8475 99.1199 91.9073 99.1673 91.9892C99.2146 92.071 99.2273 92.1681 99.2025 92.2593C99.1778 92.3504 99.1175 92.428 99.0351 92.475L82.8412 101.76C82.786 101.788 82.7247 101.802 82.6626 101.802Z" fill="#E0E0E0"/>
<path d="M84.463 102.831C84.4007 102.83 84.3396 102.814 84.2857 102.783C84.2318 102.751 84.1871 102.707 84.1559 102.653C84.1087 102.571 84.0957 102.474 84.1197 102.383C84.1437 102.291 84.2029 102.213 84.2845 102.164L100.478 92.8864C100.519 92.8572 100.565 92.8368 100.614 92.8264C100.663 92.816 100.713 92.816 100.762 92.8262C100.811 92.8364 100.857 92.8567 100.898 92.8858C100.938 92.9149 100.972 92.9521 100.997 92.995C101.022 93.0379 101.038 93.0855 101.044 93.1348C101.049 93.1842 101.044 93.2341 101.029 93.2813C101.013 93.3286 100.988 93.3722 100.955 93.4092C100.922 93.4462 100.881 93.476 100.836 93.4964L84.6416 102.781C84.588 102.814 84.5261 102.831 84.463 102.831Z" fill="#E0E0E0"/>
<path d="M68.4116 94.539L69.0402 94.1773L76.4193 98.4047L75.7835 98.7664L68.4116 94.539Z" fill="#cecece"/>
<path d="M70.9688 93.0708L72.0688 92.4466L79.4408 96.6811L78.3478 97.2982L70.9688 93.0708Z" fill="#cecece"/>
<path d="M73.5337 91.5955L74.1695 91.2337L81.5414 95.4682L80.9128 95.8229L73.5337 91.5955Z" fill="#cecece"/>
<path d="M75.4551 90.4819L76.7266 89.7655L84.1057 93.9929L82.8342 94.7093L75.4551 90.4819Z" fill="#cecece"/>
<path d="M78.6626 88.659L79.2912 88.2973L86.6703 92.5247L86.0417 92.8864L78.6626 88.659Z" fill="#cecece"/>
<path d="M80.4907 87.588L81.8551 86.822L89.2342 91.0564L87.8698 91.8225L80.4907 87.588Z" fill="#cecece"/>
<path d="M83.791 85.7155L84.4196 85.3537L91.7987 89.5882L91.1701 89.9428L83.791 85.7155Z" fill="#cecece"/>
<path d="M85.2412 84.8714L85.5627 84.6941L92.9346 88.9215L92.6203 89.1059L85.2412 84.8714Z" fill="#cecece"/>
<path d="M82.6558 86.4106L82.9701 86.2262L90.3491 90.4535L90.0348 90.6379L82.6558 86.4106Z" fill="#cecece"/>
<path d="M77.4624 89.3541L77.7839 89.1697L85.1558 93.4042L84.8415 93.5815L77.4624 89.3541Z" fill="#cecece"/>
<path d="M74.6406 90.9784L74.9621 90.794L82.334 95.0284L82.0197 95.2058L74.6406 90.9784Z" fill="#cecece"/>
<path d="M72.6479 92.1629L72.9623 91.9785L80.3342 96.213L80.0199 96.3903L72.6479 92.1629Z" fill="#cecece"/>
<path d="M69.8403 93.7092L70.1546 93.5318L77.5266 97.7592L77.2123 97.9365L69.8403 93.7092Z" fill="#cecece"/>
<path d="M86.356 84.2472L86.9846 83.8855L94.3636 88.1129L93.7279 88.4746L86.356 84.2472Z" fill="#cecece"/>
<path d="M121.194 149.523L60.2612 114.591V94.6242L121.194 129.557V149.523Z" fill="#cecece"/>
<g opacity="0.2">
<path d="M121.194 149.523L60.2612 114.591V94.6242L121.194 129.557V149.523Z" fill="black"/>
</g>
<path d="M121.194 149.523L173.426 119.577V99.6176L121.194 129.557V149.523Z" fill="#cecece"/>
<path opacity="0.3" d="M121.194 149.523L173.426 119.577V99.6176L121.194 129.557V149.523Z" fill="black"/>
<path d="M152.731 117.931L148.502 120.35V113.846L152.731 111.42V117.931Z" fill="#cecece"/>
<path d="M148.502 113.846L87.5698 78.9134L91.7915 76.4876L152.731 111.42L148.502 113.846Z" fill="#cecece"/>
<path d="M97.371 129.025C96.9104 128.705 96.5334 128.281 96.2712 127.787C96.0091 127.294 95.8694 126.745 95.8638 126.188V121.854L98.9283 123.641L99.1283 123.606V123.889V127.769C99.1523 128.022 99.1096 128.277 99.0044 128.508C98.8992 128.739 98.7351 128.939 98.5282 129.089C98.3825 129.171 98.2172 129.212 98.0496 129.209C97.8109 129.209 97.5767 129.145 97.371 129.025ZM97.7139 124.358L97.4853 125.875H96.3567V126.195C96.3674 126.666 96.487 127.128 96.7062 127.547C96.9254 127.965 97.2384 128.327 97.621 128.606C97.7151 128.673 97.8251 128.715 97.9402 128.728C98.0554 128.74 98.1718 128.723 98.2782 128.677C98.4096 128.571 98.5114 128.433 98.574 128.276C98.6365 128.12 98.6576 127.95 98.6354 127.783V124.194L97.7139 124.358ZM97.2782 123.939L98.1854 123.776L96.3567 122.712V125.365H97.071L97.2782 123.939Z" fill="#cecece"/>
<path d="M97.4919 132.316C97.557 132.316 97.6195 132.291 97.6662 132.246C97.7129 132.201 97.7401 132.139 97.7419 132.075V128.819C97.7419 128.753 97.7156 128.69 97.6687 128.643C97.6218 128.597 97.5582 128.571 97.4919 128.571C97.4268 128.573 97.3651 128.6 97.3197 128.646C97.2744 128.692 97.249 128.754 97.249 128.819V132.075C97.249 132.139 97.2746 132.2 97.3202 132.245C97.3657 132.29 97.4275 132.316 97.4919 132.316Z" fill="#cecece"/>
<path d="M98.9207 133.167C98.9649 133.168 99.0084 133.156 99.0463 133.134C99.0842 133.111 99.115 133.078 99.135 133.039C99.1663 132.983 99.174 132.916 99.1567 132.854C99.1393 132.792 99.0983 132.739 99.0422 132.706L96.1848 131.075C96.1568 131.058 96.1258 131.048 96.0936 131.044C96.0614 131.039 96.0286 131.042 95.9973 131.05C95.966 131.059 95.9368 131.074 95.9113 131.094C95.8859 131.114 95.8647 131.139 95.8491 131.167C95.8326 131.194 95.8216 131.224 95.817 131.255C95.8123 131.286 95.8141 131.318 95.8221 131.348C95.8301 131.378 95.8442 131.407 95.8636 131.432C95.8829 131.457 95.9072 131.478 95.9348 131.493L98.7922 133.132C98.8308 133.155 98.8754 133.167 98.9207 133.167Z" fill="#cecece"/>
<path d="M107.472 138.175C107.564 138.173 107.655 138.148 107.736 138.104C107.835 138.042 107.916 137.955 107.969 137.851C108.021 137.747 108.045 137.631 108.036 137.515V136.848C108.034 136.784 108.007 136.722 107.96 136.677C107.914 136.632 107.851 136.607 107.786 136.607C107.722 136.607 107.66 136.632 107.614 136.678C107.569 136.723 107.543 136.784 107.543 136.848V137.515C107.543 137.614 107.543 137.671 107.493 137.678C107.443 137.685 107.422 137.678 107.336 137.636C107.184 137.496 107.065 137.326 106.986 137.136C106.907 136.946 106.87 136.741 106.879 136.536V132.202C106.879 132.138 106.853 132.077 106.808 132.032C106.762 131.987 106.7 131.961 106.636 131.961C106.571 131.961 106.508 131.986 106.462 132.031C106.415 132.076 106.388 132.138 106.386 132.202V136.536C106.376 136.828 106.435 137.118 106.559 137.383C106.683 137.648 106.869 137.881 107.1 138.061C107.213 138.129 107.34 138.168 107.472 138.175Z" fill="#cecece"/>
<path d="M103.528 130.642V130.5C103.452 130.082 103.508 129.651 103.688 129.266C103.868 128.881 104.163 128.56 104.534 128.347C104.904 128.135 105.331 128.041 105.757 128.078C106.183 128.116 106.587 128.283 106.914 128.557C107.829 129.149 108.59 129.947 109.136 130.886C109.682 131.825 109.998 132.879 110.057 133.961V134.387L103.528 130.642ZM104.778 128.769C104.526 128.943 104.321 129.177 104.184 129.45C104.047 129.722 103.981 130.025 103.992 130.33L109.514 133.493C109.397 132.576 109.081 131.696 108.588 130.912C108.094 130.128 107.436 129.46 106.657 128.954C106.289 128.721 105.865 128.588 105.428 128.571C105.198 128.579 104.973 128.648 104.778 128.769Z" fill="#cecece"/>
<path d="M117.343 143.643C117.408 143.643 117.471 143.618 117.517 143.573C117.564 143.528 117.591 143.467 117.593 143.402V135.096C117.591 135.032 117.564 134.97 117.517 134.925C117.471 134.88 117.408 134.855 117.343 134.855C117.279 134.855 117.217 134.881 117.171 134.926C117.126 134.971 117.1 135.032 117.1 135.096V143.402C117.1 143.466 117.126 143.527 117.171 143.573C117.217 143.618 117.279 143.643 117.343 143.643Z" fill="#cecece"/>
<path d="M118.065 136.99C118.096 136.997 118.127 136.997 118.158 136.99C118.188 136.979 118.216 136.961 118.239 136.938C118.262 136.916 118.28 136.888 118.292 136.858C118.304 136.828 118.31 136.796 118.309 136.764C118.308 136.732 118.3 136.7 118.286 136.671L117.415 134.671L116.436 135.784C116.39 135.831 116.365 135.893 116.365 135.958C116.365 136.023 116.39 136.085 116.436 136.132C116.482 136.177 116.543 136.202 116.608 136.202C116.672 136.202 116.734 136.177 116.779 136.132L117.243 135.6L117.808 136.898C117.838 136.936 117.877 136.964 117.923 136.981C117.968 136.997 118.018 137 118.065 136.99Z" fill="#cecece"/>
<path d="M115.072 142.388C115.105 142.388 115.138 142.381 115.168 142.369C115.198 142.356 115.226 142.338 115.249 142.315C115.272 142.292 115.291 142.265 115.303 142.235C115.316 142.204 115.322 142.172 115.322 142.14V133.841C115.321 133.776 115.293 133.715 115.247 133.67C115.2 133.625 115.138 133.6 115.072 133.6C115.008 133.6 114.946 133.625 114.901 133.67C114.855 133.716 114.83 133.777 114.83 133.841V142.14C114.83 142.204 114.855 142.266 114.9 142.313C114.946 142.359 115.007 142.386 115.072 142.388Z" fill="#cecece"/>
<path d="M115.793 135.706C115.824 135.713 115.856 135.713 115.886 135.706C115.917 135.695 115.944 135.677 115.967 135.654C115.991 135.632 116.009 135.605 116.021 135.575C116.033 135.545 116.039 135.512 116.038 135.48C116.037 135.448 116.029 135.416 116.015 135.387L115.143 133.38L114.165 134.5C114.121 134.547 114.097 134.607 114.097 134.671C114.097 134.734 114.121 134.795 114.165 134.841C114.187 134.864 114.213 134.883 114.243 134.895C114.272 134.908 114.304 134.914 114.336 134.914C114.368 134.914 114.4 134.908 114.43 134.895C114.459 134.883 114.486 134.864 114.508 134.841L114.972 134.309L115.536 135.6C115.564 135.64 115.603 135.672 115.649 135.691C115.695 135.709 115.745 135.715 115.793 135.706Z" fill="#cecece"/>
<path d="M80.1127 110.711V121.457C80.1127 121.868 79.8198 122.038 79.4626 121.833L62.5615 112.144C62.3701 112.022 62.2107 111.857 62.0964 111.662C61.9821 111.467 61.9162 111.248 61.9043 111.023V100.27C61.9043 99.8587 62.1972 99.6885 62.5615 99.8942L79.4483 109.583C79.642 109.704 79.8034 109.87 79.919 110.067C80.0346 110.263 80.1011 110.484 80.1127 110.711Z" fill="#FAFAFA"/>
<path d="M62.9614 101.433L63.5043 101.745V111.512L62.9614 111.2V101.433Z" fill="#cecece"/>
<path d="M65.1758 102.71L66.1187 103.256V113.023L65.1758 112.47V102.71Z" fill="#cecece"/>
<path d="M67.3975 103.98L67.9475 104.292V114.059L67.3975 113.747V103.98Z" fill="#cecece"/>
<path d="M69.0757 104.923L70.1615 105.561V115.328L69.0757 114.69V104.923Z" fill="#cecece"/>
<path d="M71.8408 106.526L72.3837 106.838V116.605L71.8408 116.293V106.526Z" fill="#cecece"/>
<path d="M73.4409 107.42L74.6053 108.108V117.875L73.4409 117.187V107.42Z" fill="#cecece"/>
<path d="M76.2837 109.065L76.8266 109.384V119.151L76.2837 118.832V109.065Z" fill="#cecece"/>
<path d="M77.5483 109.782L77.8198 109.938V119.705L77.5483 119.549V109.782Z" fill="#cecece"/>
<path d="M75.2695 108.533L75.541 108.696V118.456L75.2695 118.3V108.533Z" fill="#cecece"/>
<path d="M70.7974 105.937L71.0688 106.093V115.86L70.7974 115.704V105.937Z" fill="#cecece"/>
<path d="M68.3472 104.54L68.6186 104.696V114.463L68.3472 114.307V104.54Z" fill="#cecece"/>
<path d="M66.5898 103.575L66.8613 103.731V113.498L66.5898 113.342V103.575Z" fill="#cecece"/>
<path d="M64.2041 102.136L64.4755 102.292V112.059L64.2041 111.902V102.136Z" fill="#cecece"/>
<path d="M78.498 110.342L79.0481 110.654V120.421L78.498 120.109V110.342Z" fill="#cecece"/>
<path opacity="0.1" d="M89.3698 230.879L41.6452 258.208L5.92139 237.702L53.7603 210.437L89.3698 230.879Z" fill="black"/>
<path d="M10.2793 150.36L53.8036 125.414L85.7272 143.707L42.2029 168.66L10.2793 150.36Z" fill="#cecece"/>
<path opacity="0.1" d="M10.2793 150.36L53.8036 125.414L85.7272 143.707L42.2029 168.66L10.2793 150.36Z" fill="black"/>
<path d="M53.3823 128.996L40.0242 136.635C39.7814 136.777 39.8456 137.04 40.1671 137.224L55.2538 145.87C55.4052 145.96 55.5753 146.015 55.7511 146.03C55.9269 146.044 56.1038 146.019 56.2682 145.955L69.6333 138.309C69.8762 138.167 69.8119 137.912 69.4905 137.721L54.4038 129.081C54.2511 128.991 54.0799 128.937 53.9029 128.922C53.7259 128.907 53.5479 128.933 53.3823 128.996Z" fill="#FAFAFA"/>
<path d="M60.1326 141.998C60.1805 141.999 60.2278 141.986 60.2693 141.963C60.3108 141.939 60.345 141.904 60.3683 141.863C60.4048 141.8 60.4148 141.725 60.3961 141.655C60.3774 141.584 60.3315 141.524 60.2683 141.487L47.7461 134.309C47.6812 134.275 47.6058 134.267 47.5354 134.287C47.4649 134.307 47.4048 134.353 47.3675 134.415C47.3332 134.478 47.3245 134.551 47.3431 134.62C47.3617 134.688 47.4062 134.747 47.4675 134.784L59.9897 141.962C60.0327 141.988 60.0825 142 60.1326 141.998Z" fill="#E0E0E0"/>
<path d="M58.7396 142.792C58.7872 142.791 58.8338 142.779 58.8751 142.755C58.9164 142.732 58.9509 142.698 58.9753 142.657C58.9943 142.626 59.0068 142.592 59.0121 142.556C59.0174 142.52 59.0153 142.483 59.0059 142.448C58.9966 142.413 58.9802 142.38 58.9578 142.352C58.9353 142.323 58.9073 142.299 58.8753 142.281L46.353 135.103C46.3223 135.085 46.2881 135.072 46.2525 135.067C46.2168 135.062 46.1805 135.064 46.1457 135.073C46.1109 135.083 46.0784 135.099 46.0502 135.121C46.022 135.143 45.9986 135.171 45.9816 135.203C45.9625 135.234 45.95 135.268 45.9447 135.304C45.9395 135.34 45.9416 135.377 45.9509 135.412C45.9602 135.447 45.9766 135.48 45.9991 135.508C46.0215 135.537 46.0496 135.561 46.0816 135.579L58.6038 142.757C58.6455 142.779 58.6921 142.791 58.7396 142.792Z" fill="#E0E0E0"/>
<path d="M57.3462 143.579C57.4062 143.578 57.4641 143.558 57.5115 143.521C57.5589 143.485 57.5931 143.434 57.6091 143.377C57.6252 143.319 57.6222 143.259 57.6005 143.203C57.5789 143.147 57.5398 143.1 57.4891 143.069L44.9668 135.891C44.9029 135.856 44.8281 135.847 44.7577 135.866C44.6874 135.884 44.6267 135.929 44.5882 135.99C44.5518 136.053 44.5418 136.128 44.5605 136.198C44.5792 136.269 44.6251 136.329 44.6882 136.366L57.2105 143.544C57.2512 143.569 57.2985 143.581 57.3462 143.579Z" fill="#E0E0E0"/>
<path d="M55.9607 144.374C56.0084 144.373 56.055 144.36 56.0963 144.337C56.1376 144.313 56.1721 144.28 56.1965 144.239C56.2155 144.208 56.228 144.173 56.2333 144.138C56.2386 144.102 56.2365 144.065 56.2271 144.03C56.2178 143.995 56.2014 143.962 56.179 143.933C56.1565 143.905 56.1284 143.881 56.0965 143.863L43.5742 136.713C43.5435 136.695 43.5093 136.682 43.4737 136.677C43.438 136.672 43.4017 136.674 43.3669 136.683C43.3321 136.693 43.2996 136.709 43.2714 136.731C43.2431 136.753 43.2198 136.781 43.2027 136.813C43.1837 136.844 43.1712 136.878 43.1659 136.914C43.1606 136.95 43.1627 136.987 43.1721 137.022C43.1814 137.057 43.1978 137.09 43.2203 137.118C43.2427 137.147 43.2708 137.171 43.3028 137.189L55.8179 144.367C55.8645 144.379 55.9131 144.381 55.9607 144.374Z" fill="#E0E0E0"/>
<path d="M68.3692 137.962L67.8835 137.685L62.1831 140.955L62.6688 141.232L68.3692 137.962Z" fill="#cecece"/>
<path d="M66.3898 136.827L65.5397 136.352L59.8394 139.622L60.6823 140.097L66.3898 136.827Z" fill="#cecece"/>
<path d="M64.4044 135.692L63.9186 135.408L58.2183 138.678L58.704 138.962L64.4044 135.692Z" fill="#cecece"/>
<path d="M62.9186 134.827L61.9399 134.273L56.2324 137.543L57.2182 138.097L62.9186 134.827Z" fill="#cecece"/>
<path d="M60.44 133.415L59.9543 133.139L54.2539 136.408L54.7397 136.685L60.44 133.415Z" fill="#cecece"/>
<path d="M59.0252 132.592L57.9751 132.004L52.2676 135.274L53.3248 135.862L59.0252 132.592Z" fill="#cecece"/>
<path d="M56.4752 131.145L55.9894 130.862L50.2891 134.132L50.7748 134.415L56.4752 131.145Z" fill="#cecece"/>
<path d="M55.3534 130.493L55.1105 130.351L49.4102 133.621L49.653 133.763L55.3534 130.493Z" fill="#cecece"/>
<path d="M57.3537 131.677L57.1108 131.536L51.4033 134.805L51.6533 134.947L57.3537 131.677Z" fill="#cecece"/>
<path d="M61.3684 133.954L61.1255 133.812L55.418 137.082L55.668 137.224L61.3684 133.954Z" fill="#cecece"/>
<path d="M63.5473 135.21L63.3044 135.075L57.604 138.338L57.8469 138.48L63.5473 135.21Z" fill="#cecece"/>
<path d="M65.0974 136.125L64.8545 135.983L59.147 139.26L59.3898 139.395L65.0974 136.125Z" fill="#cecece"/>
<path d="M67.2692 137.323L67.0264 137.182L61.3188 140.451L61.5617 140.593L67.2692 137.323Z" fill="#cecece"/>
<path d="M54.4965 130.004L54.0107 129.727L48.3032 132.997L48.789 133.28L54.4965 130.004Z" fill="#cecece"/>
<path d="M42.2029 255.172L10.2793 236.872V150.36L42.2029 168.66V255.172Z" fill="#cecece"/>
<g opacity="0.2">
<path d="M42.2029 255.172L10.2793 236.872V150.36L42.2029 168.66V255.172Z" fill="black"/>
</g>
<path d="M42.2031 255.172L85.7275 230.219V143.707L42.2031 168.66V255.172Z" fill="#cecece"/>
<path opacity="0.3" d="M42.2031 255.172L85.7275 230.219V143.707L42.2031 168.66V255.172Z" fill="black"/>
<path d="M65.4117 161.865L61.1899 164.284V157.772L65.4117 155.354V161.865Z" fill="#cecece"/>
<path d="M61.1899 157.772L29.2734 139.48L33.4952 137.054L65.4116 155.354L61.1899 157.772Z" fill="#cecece"/>
<path d="M18.373 234.681C17.9149 234.359 17.5397 233.934 17.2778 233.441C17.016 232.948 16.8748 232.401 16.8657 231.843V227.503L19.9302 229.29H20.1302V229.581V233.461C20.1574 233.713 20.116 233.967 20.0105 234.198C19.905 234.429 19.7391 234.627 19.5302 234.773C19.3854 234.858 19.2199 234.902 19.0516 234.9C18.8103 234.885 18.5768 234.81 18.373 234.681ZM18.7158 230.006L18.4944 231.531H17.3586V231.851C17.3694 232.321 17.489 232.782 17.7082 233.199C17.9275 233.616 18.2405 233.977 18.623 234.255C18.7172 234.325 18.8281 234.368 18.9447 234.382C19.0612 234.396 19.1794 234.379 19.2873 234.333C19.4159 234.225 19.5152 234.086 19.5763 233.93C19.6374 233.774 19.6584 233.605 19.6373 233.439V229.843L18.7158 230.006ZM18.2801 229.588L19.1873 229.432L17.3586 228.361V231.049H18.0729L18.2801 229.588Z" fill="#cecece"/>
<path d="M18.501 237.972C18.5654 237.972 18.6272 237.946 18.6727 237.901C18.7183 237.856 18.7439 237.794 18.7439 237.731V234.468C18.7439 234.404 18.7183 234.342 18.6727 234.297C18.6272 234.252 18.5654 234.227 18.501 234.227C18.4359 234.227 18.3734 234.252 18.3267 234.297C18.28 234.342 18.2528 234.403 18.251 234.468V237.731C18.2528 237.795 18.28 237.856 18.3267 237.901C18.3734 237.947 18.4359 237.972 18.501 237.972Z" fill="#cecece"/>
<path d="M19.923 238.787C19.9778 238.789 20.0315 238.772 20.0755 238.74C20.1194 238.707 20.151 238.661 20.1651 238.608C20.1791 238.556 20.1749 238.5 20.153 238.45C20.1311 238.4 20.0928 238.359 20.0444 238.333L17.1871 236.695C17.1589 236.679 17.1279 236.669 17.0958 236.665C17.0637 236.661 17.0312 236.663 17 236.672C16.9688 236.681 16.9396 236.695 16.9141 236.715C16.8886 236.735 16.8673 236.759 16.8514 236.787C16.8354 236.815 16.8252 236.846 16.8212 236.878C16.8172 236.91 16.8196 236.942 16.8283 236.973C16.8369 237.004 16.8516 237.033 16.8715 237.058C16.8913 237.084 16.9161 237.105 16.9442 237.121L19.8016 238.752C19.8366 238.777 19.8796 238.79 19.923 238.787Z" fill="#cecece"/>
<path d="M28.4735 243.816C28.5678 243.817 28.661 243.795 28.7449 243.752C28.8413 243.688 28.919 243.6 28.9704 243.497C29.0218 243.394 29.045 243.279 29.0378 243.164V242.497C29.0439 242.461 29.0422 242.425 29.0326 242.39C29.023 242.355 29.0059 242.323 28.9825 242.295C28.959 242.267 28.9297 242.245 28.8967 242.23C28.8637 242.215 28.8278 242.207 28.7914 242.207C28.755 242.207 28.719 242.215 28.686 242.23C28.653 242.245 28.6237 242.267 28.6003 242.295C28.5768 242.323 28.5597 242.355 28.5501 242.39C28.5406 242.425 28.5388 242.461 28.5449 242.497V243.164C28.5509 243.221 28.5357 243.279 28.5021 243.327C28.4438 243.334 28.385 243.319 28.3378 243.284C28.186 243.145 28.0665 242.974 27.9875 242.784C27.9086 242.595 27.8721 242.39 27.8806 242.185V237.858C27.8806 237.794 27.8553 237.731 27.8099 237.685C27.7646 237.639 27.7028 237.612 27.6377 237.61C27.6049 237.61 27.5724 237.616 27.542 237.629C27.5117 237.641 27.4842 237.66 27.4609 237.683C27.4377 237.706 27.4193 237.733 27.4067 237.763C27.3942 237.793 27.3877 237.826 27.3877 237.858V242.192C27.3782 242.483 27.4379 242.772 27.562 243.036C27.6862 243.299 27.8712 243.53 28.102 243.71C28.2136 243.779 28.3422 243.815 28.4735 243.816Z" fill="#cecece"/>
<path d="M24.5303 236.291V236.149C24.4572 235.731 24.5151 235.301 24.6962 234.916C24.8773 234.532 25.173 234.212 25.5431 234C25.9133 233.788 26.3401 233.694 26.7658 233.731C27.1915 233.768 27.5956 233.933 27.9234 234.205C28.8364 234.799 29.5959 235.597 30.1407 236.536C30.6854 237.475 31.0001 238.528 31.0593 239.61V240.036L24.5303 236.291ZM25.7875 234.418C25.5338 234.597 25.3304 234.838 25.1967 235.118C25.0629 235.397 25.0032 235.705 25.0232 236.014L30.545 239.177C30.4258 238.26 30.1089 237.379 29.6158 236.595C29.1227 235.81 28.4651 235.14 27.6877 234.631C27.3197 234.404 26.899 234.274 26.4662 234.255C26.2295 234.249 25.9954 234.306 25.7875 234.418Z" fill="#cecece"/>
<path d="M38.3459 249.292C38.411 249.292 38.4735 249.267 38.5202 249.222C38.5669 249.177 38.5941 249.115 38.5959 249.051V240.752C38.5941 240.687 38.5669 240.626 38.5202 240.581C38.4735 240.536 38.411 240.511 38.3459 240.511C38.2815 240.511 38.2197 240.536 38.1742 240.582C38.1286 240.627 38.103 240.688 38.103 240.752V249.051C38.103 249.115 38.1286 249.176 38.1742 249.221C38.2197 249.267 38.2815 249.292 38.3459 249.292Z" fill="#cecece"/>
<path d="M39.0669 242.646C39.0999 242.653 39.1339 242.653 39.1669 242.646C39.196 242.633 39.2222 242.614 39.2441 242.591C39.2659 242.568 39.283 242.541 39.2942 242.511C39.3055 242.482 39.3108 242.45 39.3098 242.418C39.3088 242.387 39.3015 242.356 39.2883 242.327L38.4168 240.27L37.4453 241.39C37.4 241.436 37.3745 241.497 37.3745 241.561C37.3745 241.625 37.4 241.686 37.4453 241.731C37.4929 241.775 37.5554 241.799 37.6204 241.799C37.6853 241.799 37.7478 241.775 37.7954 241.731L38.2526 241.199L38.8169 242.49C38.8373 242.538 38.8723 242.579 38.9171 242.607C38.9618 242.635 39.0141 242.649 39.0669 242.646Z" fill="#cecece"/>
<path d="M36.0739 248.008C36.139 248.008 36.2015 247.983 36.2482 247.938C36.2949 247.893 36.3221 247.832 36.3239 247.767V239.468C36.3239 239.402 36.2976 239.339 36.2507 239.293C36.2038 239.246 36.1402 239.22 36.0739 239.22C36.0089 239.222 35.9471 239.249 35.9017 239.295C35.8564 239.342 35.831 239.404 35.8311 239.468V247.767C35.8311 247.831 35.8566 247.892 35.9022 247.938C35.9477 247.983 36.0095 248.008 36.0739 248.008Z" fill="#cecece"/>
<path d="M36.7953 241.355C36.8283 241.362 36.8624 241.362 36.8953 241.355C36.9546 241.327 37.001 241.278 37.0249 241.217C37.0488 241.157 37.0484 241.089 37.0239 241.029L36.131 239.014L35.1595 240.128C35.1384 240.152 35.1223 240.18 35.1121 240.211C35.102 240.241 35.0979 240.273 35.1002 240.305C35.1026 240.337 35.1112 240.368 35.1257 240.397C35.1401 240.425 35.1601 240.451 35.1845 240.472C35.2089 240.493 35.2372 240.509 35.2678 240.519C35.2984 240.529 35.3307 240.533 35.3629 240.531C35.3951 240.528 35.4265 240.52 35.4553 240.506C35.4841 240.491 35.5098 240.471 35.531 240.447L35.9881 239.915L36.5524 241.213C36.5739 241.258 36.6085 241.296 36.6518 241.321C36.6952 241.347 36.7452 241.358 36.7953 241.355Z" fill="#cecece"/>
<path d="M39.2955 222.807V233.546C39.2955 233.964 39.0026 234.127 38.6454 233.922L21.7514 224.24C21.5591 224.118 21.3991 223.952 21.2847 223.755C21.1704 223.559 21.1051 223.339 21.0942 223.112V212.366C21.0942 211.948 21.38 211.785 21.7443 211.99L38.6383 221.679C38.8306 221.801 38.9906 221.968 39.105 222.164C39.2193 222.36 39.2846 222.581 39.2955 222.807Z" fill="#FAFAFA"/>
<path d="M22.1445 213.53L22.6874 213.842V223.609L22.1445 223.296V213.53Z" fill="#cecece"/>
<path d="M24.3662 214.799L25.302 215.352V225.119L24.3662 224.566V214.799Z" fill="#cecece"/>
<path d="M26.5879 216.076L27.1308 216.388V226.155L26.5879 225.843V216.076Z" fill="#cecece"/>
<path d="M28.2593 217.012L29.3522 217.658V227.425L28.2593 226.786V217.012Z" fill="#cecece"/>
<path d="M31.0234 218.615L31.5735 218.934V228.701L31.0234 228.389V218.615Z" fill="#cecece"/>
<path d="M32.6235 219.516L33.7879 220.204V229.971L32.6235 229.283V219.516Z" fill="#cecece"/>
<path d="M35.4673 221.161L36.0102 221.474V231.241L35.4673 230.928V221.161Z" fill="#cecece"/>
<path d="M36.7314 221.878L37.0029 222.034V231.801L36.7314 231.645V221.878Z" fill="#cecece"/>
<path d="M34.4521 220.63L34.7236 220.786V230.553L34.4521 230.396V220.63Z" fill="#cecece"/>
<path d="M29.981 218.026L30.2524 218.19V227.949L29.981 227.8V218.026Z" fill="#cecece"/>
<path d="M27.5303 216.636L27.8017 216.792V226.559L27.5303 226.403V216.636Z" fill="#cecece"/>
<path d="M25.7729 215.672L26.0444 215.828V225.595L25.7729 225.439V215.672Z" fill="#cecece"/>
<path d="M23.3877 214.232L23.6591 214.388V224.155L23.3877 223.999V214.232Z" fill="#cecece"/>
<path d="M37.6885 222.438L38.2314 222.75V232.517L37.6885 232.205V222.438Z" fill="#cecece"/>
<path opacity="0.1" d="M128.402 253.229L80.677 280.557L44.0317 259.605L91.8635 232.34L128.402 253.229Z" fill="black"/>
<path d="M49.5674 217.303L93.0989 192.35L125.015 210.65L81.4909 235.603L49.5674 217.303Z" fill="#cecece"/>
<g opacity="0.3">
<path d="M49.5674 217.303L93.0989 192.35L125.015 210.65L81.4909 235.603L49.5674 217.303Z" fill="white"/>
</g>
<path d="M92.6708 195.939L79.3128 203.578C79.0699 203.72 79.1342 203.983 79.4557 204.167L94.5424 212.813C94.6948 212.904 94.8665 212.959 95.0438 212.972C95.2212 212.986 95.3993 212.958 95.5639 212.891L108.922 205.252C109.165 205.11 109.101 204.848 108.779 204.663L93.6923 196.024C93.5411 195.93 93.3696 195.874 93.192 195.859C93.0143 195.844 92.8357 195.872 92.6708 195.939Z" fill="#FAFAFA"/>
<path d="M99.4214 208.94C99.469 208.94 99.5157 208.927 99.5569 208.904C99.5982 208.88 99.6327 208.846 99.6571 208.806C99.6761 208.775 99.6887 208.74 99.6939 208.704C99.6992 208.668 99.6971 208.632 99.6878 208.597C99.6784 208.561 99.662 208.529 99.6396 208.5C99.6171 208.471 99.5891 208.447 99.5571 208.43L87.0348 201.259C86.9728 201.236 86.9044 201.235 86.8421 201.258C86.7798 201.28 86.7277 201.324 86.695 201.381C86.6623 201.439 86.6512 201.506 86.6637 201.57C86.6763 201.635 86.7116 201.693 86.7634 201.734L99.2785 208.912C99.3236 208.931 99.3723 208.941 99.4214 208.94Z" fill="#E0E0E0"/>
<path d="M98.0279 209.77C98.0774 209.77 98.126 209.757 98.1687 209.732C98.2114 209.707 98.2466 209.671 98.2708 209.628C98.3048 209.564 98.3127 209.489 98.2927 209.419C98.2728 209.349 98.2266 209.29 98.1636 209.253L85.6485 202.039C85.5841 202.003 85.508 201.995 85.437 202.015C85.3661 202.034 85.306 202.082 85.2699 202.145C85.252 202.176 85.2404 202.21 85.2357 202.245C85.2311 202.28 85.2334 202.316 85.2427 202.35C85.252 202.385 85.268 202.417 85.2899 202.445C85.3117 202.473 85.3389 202.497 85.3699 202.514L97.8922 209.692C97.9278 209.732 97.9754 209.759 98.0279 209.77Z" fill="#E0E0E0"/>
<path d="M96.6419 210.522C96.7013 210.52 96.7582 210.498 96.8045 210.461C96.8507 210.424 96.8838 210.373 96.899 210.316C96.9142 210.259 96.9106 210.199 96.8887 210.144C96.8669 210.089 96.828 210.043 96.7777 210.011L84.2554 202.833C84.1918 202.797 84.1165 202.787 84.0456 202.806C83.9747 202.825 83.9141 202.87 83.8768 202.933C83.8421 202.996 83.8332 203.071 83.8518 203.14C83.8703 203.21 83.9151 203.27 83.9768 203.309L96.4991 210.48C96.5428 210.504 96.5917 210.519 96.6419 210.522Z" fill="#E0E0E0"/>
<path d="M95.2494 211.317C95.2978 211.316 95.3452 211.302 95.3867 211.278C95.4281 211.253 95.4621 211.217 95.4851 211.175C95.5041 211.144 95.5166 211.109 95.5219 211.073C95.5272 211.037 95.5251 211.001 95.5157 210.966C95.5064 210.93 95.49 210.898 95.4675 210.869C95.4451 210.84 95.4171 210.816 95.3851 210.799L82.8628 203.628C82.8319 203.61 82.7977 203.599 82.7623 203.594C82.7269 203.59 82.6909 203.592 82.6564 203.601C82.6219 203.61 82.5896 203.626 82.5612 203.648C82.5329 203.669 82.5092 203.696 82.4913 203.727C82.4735 203.758 82.462 203.792 82.4574 203.827C82.4527 203.862 82.4551 203.898 82.4644 203.932C82.4737 203.966 82.4897 203.998 82.5115 204.027C82.5333 204.055 82.5604 204.078 82.5914 204.096L95.1136 211.274C95.1534 211.302 95.2008 211.317 95.2494 211.317Z" fill="#E0E0E0"/>
<path d="M107.657 204.905L107.172 204.621L101.471 207.898L101.957 208.174L107.657 204.905Z" fill="#cecece"/>
<path d="M105.678 203.77L104.835 203.287L99.1279 206.557L99.978 207.04L105.678 203.77Z" fill="#cecece"/>
<path d="M103.693 202.628L103.207 202.351L97.5068 205.621L97.9926 205.898L103.693 202.628Z" fill="#cecece"/>
<path d="M102.214 201.77L101.229 201.216L95.521 204.486L96.5068 205.039L102.214 201.77Z" fill="#cecece"/>
<path d="M99.7353 200.358L99.2424 200.074L93.542 203.344L94.0277 203.628L99.7353 200.358Z" fill="#cecece"/>
<path d="M98.3134 199.528L97.2634 198.939L91.563 202.209L92.6131 202.805L98.3134 199.528Z" fill="#cecece"/>
<path d="M95.7709 198.081L95.2852 197.805L89.5776 201.074L90.0634 201.351L95.7709 198.081Z" fill="#cecece"/>
<path d="M94.6415 197.436L94.3986 197.294L88.6982 200.564L88.9411 200.698L94.6415 197.436Z" fill="#cecece"/>
<path d="M96.6425 198.62L96.3996 198.478L90.6992 201.748L90.9421 201.89L96.6425 198.62Z" fill="#cecece"/>
<path d="M100.657 200.897L100.414 200.755L94.7139 204.025L94.9567 204.167L100.657 200.897Z" fill="#cecece"/>
<path d="M102.842 202.153L102.6 202.011L96.8921 205.281L97.135 205.422L102.842 202.153Z" fill="#cecece"/>
<path d="M104.386 203.068L104.143 202.926L98.4424 206.195L98.6781 206.337L104.386 203.068Z" fill="#cecece"/>
<path d="M106.557 204.266L106.314 204.124L100.607 207.394L100.85 207.536L106.557 204.266Z" fill="#cecece"/>
<path d="M93.7848 196.946L93.299 196.67L87.5986 199.94L88.0844 200.216L93.7848 196.946Z" fill="#cecece"/>
<path d="M81.4909 277.699L49.5674 259.399V217.303L81.4909 235.603V277.699Z" fill="#cecece"/>
<path d="M81.4909 277.699L49.5674 259.399V217.303L81.4909 235.603V277.699Z" fill="#cecece"/>
<path d="M81.4912 277.699L125.016 252.746V210.65L81.4912 235.603V277.699Z" fill="#cecece"/>
<path opacity="0.1" d="M81.4912 277.699L125.016 252.746V210.65L81.4912 235.603V277.699Z" fill="black"/>
<path d="M104.7 228.801L100.478 231.226V224.715L104.7 222.296V228.801Z" fill="#cecece"/>
<path d="M100.478 224.715L68.562 206.415L72.7837 203.997L104.7 222.296L100.478 224.715Z" fill="#cecece"/>
<path d="M120.987 248.696C120.877 248.694 120.77 248.668 120.672 248.618C120.536 248.519 120.428 248.387 120.36 248.234C120.291 248.081 120.263 247.912 120.28 247.746V245.192V245.008H120.408L122.43 243.83V246.668C122.425 247.034 122.333 247.395 122.16 247.719C121.987 248.044 121.739 248.323 121.437 248.533C121.303 248.625 121.148 248.681 120.987 248.696ZM120.601 245.384V247.746C120.587 247.856 120.601 247.967 120.642 248.07C120.683 248.173 120.75 248.264 120.837 248.334C120.907 248.365 120.985 248.377 121.061 248.368C121.138 248.359 121.211 248.331 121.272 248.285C121.524 248.102 121.729 247.864 121.873 247.59C122.016 247.316 122.094 247.012 122.101 246.703V246.49H121.387L121.237 245.49L120.601 245.384ZM121.637 246.171H122.101V244.405L120.901 245.114L121.494 245.221L121.637 246.171Z" fill="#cecece"/>
<path d="M121.351 250.732C121.331 250.732 121.31 250.728 121.291 250.72C121.272 250.712 121.255 250.701 121.24 250.686C121.225 250.672 121.214 250.654 121.206 250.635C121.198 250.617 121.194 250.596 121.194 250.576V248.448C121.189 248.424 121.189 248.4 121.195 248.376C121.201 248.352 121.212 248.33 121.227 248.311C121.242 248.293 121.262 248.277 121.284 248.267C121.306 248.256 121.33 248.251 121.355 248.251C121.379 248.251 121.403 248.256 121.425 248.267C121.448 248.277 121.467 248.293 121.482 248.311C121.498 248.33 121.509 248.352 121.514 248.376C121.52 248.4 121.521 248.424 121.515 248.448V250.576C121.515 250.597 121.511 250.618 121.503 250.637C121.495 250.657 121.482 250.674 121.467 250.689C121.452 250.703 121.433 250.715 121.413 250.722C121.394 250.729 121.372 250.733 121.351 250.732Z" fill="#cecece"/>
<path d="M120.423 251.271C120.394 251.271 120.366 251.264 120.341 251.251C120.316 251.237 120.295 251.217 120.28 251.193C120.259 251.156 120.253 251.112 120.264 251.071C120.274 251.03 120.301 250.995 120.337 250.973L122.216 249.895C122.253 249.874 122.297 249.868 122.338 249.879C122.379 249.889 122.415 249.915 122.437 249.952C122.448 249.97 122.456 249.99 122.459 250.011C122.463 250.032 122.462 250.053 122.456 250.074C122.451 250.094 122.441 250.114 122.428 250.13C122.415 250.147 122.399 250.161 122.38 250.171L120.501 251.25C120.477 251.263 120.45 251.27 120.423 251.271Z" fill="#cecece"/>
<path d="M114.779 254.59C114.717 254.591 114.656 254.576 114.601 254.548C114.537 254.505 114.485 254.447 114.451 254.379C114.417 254.31 114.402 254.234 114.408 254.158V253.746C114.408 253.703 114.425 253.662 114.456 253.631C114.487 253.6 114.529 253.583 114.572 253.583C114.615 253.585 114.656 253.603 114.686 253.633C114.717 253.663 114.735 253.704 114.736 253.746V254.186C114.736 254.257 114.736 254.285 114.736 254.292C114.736 254.3 114.786 254.292 114.844 254.292C114.941 254.202 115.017 254.091 115.069 253.969C115.121 253.847 115.146 253.716 115.144 253.583V250.746C115.138 250.722 115.139 250.698 115.145 250.674C115.15 250.65 115.161 250.628 115.177 250.609C115.192 250.591 115.212 250.575 115.234 250.565C115.256 250.554 115.28 250.549 115.304 250.549C115.329 250.549 115.353 250.554 115.375 250.565C115.397 250.575 115.417 250.591 115.432 250.609C115.447 250.628 115.458 250.65 115.464 250.674C115.47 250.698 115.47 250.722 115.465 250.746V253.583C115.472 253.774 115.435 253.963 115.355 254.137C115.276 254.31 115.157 254.463 115.008 254.583C114.934 254.605 114.855 254.608 114.779 254.59Z" fill="#cecece"/>
<path d="M113.079 252.094V251.817C113.119 251.106 113.326 250.415 113.685 249.799C114.043 249.183 114.543 248.659 115.144 248.271C115.359 248.09 115.625 247.98 115.906 247.954C116.186 247.929 116.468 247.991 116.712 248.13C116.957 248.27 117.152 248.481 117.271 248.734C117.391 248.988 117.428 249.272 117.379 249.547V249.639L113.079 252.094ZM116.136 248.285C115.85 248.297 115.572 248.383 115.329 248.533C114.816 248.868 114.382 249.309 114.055 249.825C113.728 250.342 113.517 250.922 113.436 251.526L117.072 249.441C117.087 249.239 117.048 249.037 116.961 248.854C116.873 248.671 116.739 248.514 116.572 248.398C116.441 248.32 116.29 248.281 116.136 248.285Z" fill="#cecece"/>
<path d="M108.279 258.194C108.258 258.194 108.238 258.19 108.219 258.182C108.2 258.174 108.182 258.162 108.168 258.148C108.153 258.133 108.142 258.116 108.134 258.097C108.126 258.078 108.122 258.058 108.122 258.038V252.569C108.117 252.545 108.117 252.521 108.123 252.497C108.128 252.473 108.139 252.451 108.155 252.432C108.17 252.413 108.19 252.398 108.212 252.388C108.234 252.377 108.258 252.372 108.282 252.372C108.307 252.372 108.331 252.377 108.353 252.388C108.375 252.398 108.395 252.413 108.41 252.432C108.426 252.451 108.436 252.473 108.442 252.497C108.448 252.521 108.448 252.545 108.443 252.569V258.038C108.443 258.059 108.439 258.08 108.431 258.099C108.422 258.118 108.41 258.136 108.395 258.15C108.379 258.165 108.361 258.176 108.341 258.184C108.321 258.191 108.3 258.195 108.279 258.194Z" fill="#cecece"/>
<path d="M107.8 253.81H107.736C107.699 253.79 107.67 253.758 107.654 253.719C107.638 253.68 107.637 253.637 107.65 253.597L108.229 252.278L108.872 252.987C108.892 253.02 108.9 253.059 108.895 253.097C108.889 253.135 108.87 253.17 108.841 253.195C108.812 253.221 108.774 253.235 108.736 253.236C108.697 253.237 108.659 253.224 108.629 253.2L108.322 252.853L107.95 253.704C107.939 253.734 107.918 253.761 107.892 253.78C107.865 253.799 107.833 253.809 107.8 253.81Z" fill="#cecece"/>
<path d="M109.771 257.349C109.75 257.349 109.728 257.345 109.708 257.337C109.688 257.329 109.67 257.317 109.655 257.302C109.64 257.287 109.628 257.269 109.619 257.249C109.611 257.229 109.607 257.208 109.607 257.186V251.718C109.609 251.675 109.627 251.635 109.657 251.604C109.687 251.574 109.728 251.556 109.771 251.555C109.815 251.555 109.857 251.572 109.887 251.602C109.918 251.633 109.936 251.674 109.936 251.718V257.186C109.936 257.23 109.918 257.271 109.887 257.302C109.857 257.332 109.815 257.349 109.771 257.349Z" fill="#cecece"/>
<path d="M109.301 252.966H109.236C109.216 252.958 109.198 252.947 109.182 252.932C109.167 252.916 109.155 252.898 109.146 252.878C109.138 252.858 109.135 252.837 109.135 252.815C109.136 252.794 109.141 252.773 109.151 252.753L109.729 251.434L110.365 252.143C110.38 252.158 110.393 252.175 110.401 252.195C110.41 252.215 110.414 252.236 110.414 252.257C110.414 252.278 110.41 252.299 110.401 252.319C110.393 252.338 110.38 252.356 110.365 252.37C110.334 252.4 110.293 252.416 110.251 252.416C110.208 252.416 110.167 252.4 110.136 252.37L109.836 252.016L109.458 252.867C109.447 252.899 109.425 252.926 109.396 252.944C109.368 252.962 109.334 252.97 109.301 252.966Z" fill="#cecece"/>
<path d="M84.9199 260.3V271.046C84.9199 271.457 85.2128 271.628 85.57 271.422L102.464 261.74C102.656 261.618 102.816 261.452 102.931 261.255C103.045 261.059 103.11 260.839 103.121 260.612V249.859C103.121 249.448 102.828 249.278 102.464 249.491L85.57 259.179C85.3799 259.302 85.2219 259.467 85.1089 259.662C84.9958 259.857 84.9311 260.076 84.9199 260.3Z" fill="#FAFAFA"/>
<path d="M102.071 251.03L101.528 251.342V261.109L102.071 260.797V251.03Z" fill="#cecece"/>
<path d="M99.8493 252.299L98.9136 252.846V262.612L99.8493 262.066V252.299Z" fill="#cecece"/>
<path d="M97.635 253.569L97.085 253.881V263.648L97.635 263.336V253.569Z" fill="#cecece"/>
<path d="M95.9562 254.512L94.8633 255.158V264.925L95.9562 264.279V254.512Z" fill="#cecece"/>
<path d="M93.1918 256.115L92.6489 256.427V266.194L93.1918 265.882V256.115Z" fill="#cecece"/>
<path d="M91.5921 257.009L90.4277 257.697V267.471L91.5921 266.776V257.009Z" fill="#cecece"/>
<path d="M88.749 258.662L88.2061 258.974V268.741L88.749 268.429V258.662Z" fill="#cecece"/>
<path d="M87.4848 259.378L87.2134 259.534V269.301L87.4848 269.145V259.378Z" fill="#cecece"/>
<path d="M89.7636 258.13L89.4922 258.286V268.053L89.7636 267.897V258.13Z" fill="#cecece"/>
<path d="M94.2353 255.527L93.9639 255.683V265.45L94.2353 265.294V255.527Z" fill="#cecece"/>
<path d="M96.685 254.129L96.4136 254.285V264.052L96.685 263.896V254.129Z" fill="#cecece"/>
<path d="M98.4423 253.165L98.1709 253.321V263.088L98.4423 262.932V253.165Z" fill="#cecece"/>
<path d="M100.829 251.725L100.557 251.888V261.655L100.829 261.499V251.725Z" fill="#cecece"/>
<path d="M86.5273 259.931L85.9844 260.243V270.01L86.5273 269.698V259.931Z" fill="#cecece"/>
<path d="M92.5634 49.5275L83.7271 54.6131L87.2344 62.4153C87.3046 62.5702 87.422 62.6992 87.5702 62.7841L90.6061 64.529C90.7125 64.5897 90.8313 64.6258 90.9537 64.6345C91.0761 64.6433 91.1989 64.6244 91.3129 64.5794C91.4269 64.5344 91.5292 64.4644 91.6122 64.3746C91.6951 64.2848 91.7565 64.1775 91.7919 64.0608L95.5993 51.244L92.5634 49.5275Z" fill="#cecece"/>
<path opacity="0.15" d="M92.5634 49.5275L83.7271 54.6131L87.2344 62.4153C87.3046 62.5702 87.422 62.6992 87.5702 62.7841L90.6061 64.529C90.7125 64.5897 90.8313 64.6258 90.9537 64.6345C91.0761 64.6433 91.1989 64.6244 91.3129 64.5794C91.4269 64.5344 91.5292 64.4644 91.6122 64.3746C91.6951 64.2848 91.7565 64.1775 91.7919 64.0608L95.5993 51.244L92.5634 49.5275Z" fill="black"/>
<path d="M86.792 56.3508L90.2994 64.153C90.366 64.3038 90.4779 64.4305 90.6196 64.5159C90.7614 64.6013 90.9262 64.6413 91.0916 64.6305C91.2571 64.6196 91.4151 64.5585 91.5444 64.4553C91.6736 64.3521 91.7676 64.2119 91.8138 64.0537L95.6211 51.2369L86.792 56.3508Z" fill="#cecece"/>
<path d="M103.707 0.189259L70.4191 19.2904C70.1967 19.434 70.0116 19.6277 69.8788 19.8557C69.746 20.0837 69.6692 20.3396 69.6548 20.6026V61.6563C69.672 61.9158 69.75 62.1677 69.8827 62.3918C70.0155 62.616 70.1991 62.8062 70.4191 62.9472L73.1622 64.4722C73.4004 64.5913 73.6634 64.6534 73.9301 64.6534C74.1968 64.6534 74.4598 64.5913 74.698 64.4722L108.007 45.371C108.231 45.2283 108.416 45.0348 108.549 44.8066C108.682 44.5785 108.758 44.3221 108.772 44.0589V3.01223C108.757 2.75032 108.68 2.49562 108.547 2.26884C108.414 2.04206 108.229 1.84961 108.007 1.70714L105.264 0.182166C105.023 0.061204 104.756 -0.0012149 104.485 1.79127e-05C104.214 0.00125073 103.948 0.0661004 103.707 0.189259Z" fill="#cecece"/>
<path opacity="0.5" d="M108.736 2.87752C108.679 2.49451 108.365 2.35974 107.979 2.57962L74.7054 21.6737C74.4782 21.8132 74.2912 22.0087 74.1625 22.2411L69.8765 19.8296C70.0048 19.609 70.1865 19.4238 70.4051 19.2905L103.707 0.189315C103.944 0.0702696 104.206 0.00823975 104.472 0.00823975C104.737 0.00823975 104.999 0.0702696 105.236 0.189315L107.979 1.71429C108.182 1.8426 108.355 2.01296 108.486 2.21373C108.616 2.4145 108.702 2.64093 108.736 2.87752Z" fill="white"/>
<path d="M73.9053 64.0396V22.9929C73.9214 22.7252 74.0025 22.4654 74.1419 22.2356C74.2812 22.0058 74.4745 21.813 74.7053 21.6737L108.015 2.57958C108.443 2.33842 108.779 2.52993 108.779 3.01225V44.066C108.766 44.3292 108.689 44.5856 108.557 44.8138C108.424 45.0419 108.238 45.2354 108.015 45.3781L74.7053 64.4793C74.241 64.7205 73.9053 64.5219 73.9053 64.0396Z" fill="#cecece"/>
<path opacity="0.15" d="M74.7051 64.4793C74.4658 64.5948 74.2033 64.6547 73.9372 64.6547C73.6712 64.6547 73.4086 64.5948 73.1693 64.4793L70.4191 62.9473C70.1965 62.8056 70.011 62.6134 69.8781 62.3864C69.7452 62.1595 69.6686 61.9043 69.6548 61.6422V20.6026C69.6637 20.3278 69.7477 20.0606 69.8977 19.8295L74.1837 22.2411C74.0414 22.467 73.9625 22.7266 73.9551 22.9929V64.0396C73.9051 64.4793 74.2194 64.7347 74.7051 64.4793Z" fill="black"/>
<path d="M77.4697 34.4196C77.4194 34.4206 77.3694 34.4115 77.3227 34.3931C77.2759 34.3746 77.2333 34.347 77.1974 34.312C77.1615 34.277 77.133 34.2353 77.1135 34.1892C77.094 34.1431 77.084 34.0937 77.084 34.0437V26.894C77.0835 26.8274 77.1011 26.7619 77.1351 26.7045C77.1691 26.647 77.2181 26.5998 77.2769 26.5678L83.513 23.0213C83.57 22.9869 83.6355 22.9687 83.7023 22.9687C83.7691 22.9687 83.8345 22.9869 83.8916 23.0213C83.9504 23.0533 83.9994 23.1006 84.0334 23.158C84.0673 23.2155 84.085 23.281 84.0845 23.3476V30.4689C84.085 30.5346 84.0681 30.5994 84.0355 30.6566C84.0029 30.7139 83.9557 30.7616 83.8987 30.7951L77.6626 34.3416C77.6068 34.3847 77.54 34.4117 77.4697 34.4196ZM77.8555 27.1139V33.384L83.3201 30.249V23.9789L77.8555 27.1139Z" fill="#FAFAFA"/>
<path d="M84.4344 21.5318C84.2497 21.4538 84.0413 21.4518 83.8552 21.5263C83.669 21.6008 83.5202 21.7456 83.4415 21.929L80.5842 28.6815L79.8698 28.0218C79.7985 27.9529 79.7143 27.8986 79.6218 27.862C79.5294 27.8254 79.4306 27.8072 79.3311 27.8086C79.2316 27.8099 79.1334 27.8306 79.0419 27.8697C78.9505 27.9087 78.8678 27.9652 78.7983 28.036C78.7289 28.1068 78.6742 28.1905 78.6374 28.2822C78.6005 28.374 78.5822 28.4721 78.5836 28.5709C78.5849 28.6697 78.6058 28.7673 78.6451 28.858C78.6844 28.9488 78.7413 29.031 78.8126 29.0999L80.2913 30.5185C80.4332 30.6545 80.6226 30.7308 80.8199 30.7313H80.9699C81.0901 30.7061 81.2023 30.6523 81.2969 30.5745C81.3915 30.4966 81.4656 30.3971 81.5128 30.2845L84.8344 22.5177C84.8797 22.4279 84.9053 22.3294 84.9094 22.229C84.9135 22.1286 84.896 22.0285 84.8582 21.9353C84.8204 21.842 84.7631 21.7579 84.69 21.6883C84.6169 21.6188 84.5298 21.5654 84.4344 21.5318Z" fill="#cecece"/>
<path d="M88.992 22.7802L104.893 13.6658C105.443 13.3466 105.893 13.5736 105.893 14.1694C105.869 14.5036 105.766 14.8274 105.592 15.1146C105.419 15.4018 105.179 15.6442 104.893 15.822L88.992 24.9364C88.4419 25.2485 87.999 25.0215 87.999 24.4257C88.0232 24.0934 88.1257 23.7714 88.2982 23.4855C88.4706 23.1997 88.7083 22.9581 88.992 22.7802Z" fill="#cecece"/>
<path d="M77.4698 45.1441C77.402 45.146 77.3352 45.1288 77.2769 45.0944C77.2185 45.0601 77.17 45.0114 77.1362 44.953C77.1024 44.8946 77.0844 44.8284 77.084 44.7611V37.6185C77.083 37.5509 77.1004 37.4842 77.1343 37.4255C77.1682 37.3668 77.2175 37.3183 77.2769 37.2852L83.513 33.7387C83.571 33.707 83.6362 33.6904 83.7023 33.6904C83.7685 33.6904 83.8336 33.707 83.8916 33.7387C83.95 33.773 83.9985 33.8217 84.0323 33.8802C84.0661 33.9386 84.0841 34.0047 84.0845 34.0721V41.1862C84.0856 41.2539 84.0682 41.3206 84.0342 41.3793C84.0003 41.4379 83.951 41.4864 83.8916 41.5196L77.6627 45.0661C77.6068 45.1091 77.5401 45.1361 77.4698 45.1441ZM77.8484 37.8384V44.1014L83.3202 40.9593V34.7033L77.8484 37.8384Z" fill="#FAFAFA"/>
<path d="M84.4345 32.2492C84.2487 32.1736 84.0403 32.1736 83.8545 32.2492C83.6687 32.3249 83.5204 32.4701 83.4416 32.6535L80.5842 39.4059L79.8699 38.7463C79.7996 38.6764 79.7161 38.6209 79.6241 38.5831C79.5322 38.5452 79.4337 38.5258 79.3341 38.5258C79.2346 38.5258 79.1361 38.5452 79.0441 38.5831C78.9522 38.6209 78.8687 38.6764 78.7984 38.7463C78.6596 38.8891 78.582 39.0798 78.582 39.2783C78.582 39.4767 78.6596 39.6674 78.7984 39.8102L80.277 41.2288C80.3457 41.2984 80.4281 41.3533 80.519 41.3899C80.61 41.4265 80.7076 41.4441 80.8057 41.4416C80.8554 41.4486 80.9059 41.4486 80.9557 41.4416C81.0766 41.4208 81.1901 41.3694 81.2852 41.2923C81.3802 41.2153 81.4537 41.1153 81.4986 41.0018L84.7845 33.1996C84.8557 33.0264 84.8594 32.833 84.7946 32.6572C84.7299 32.4814 84.6015 32.3359 84.4345 32.2492Z" fill="#cecece"/>
<path d="M88.992 33.4692L104.893 24.3548C105.443 24.0356 105.893 24.2626 105.893 24.8584C105.868 25.1914 105.765 25.5138 105.591 25.7997C105.417 26.0855 105.178 26.3268 104.893 26.5039L88.992 35.6254C88.4419 35.9375 87.999 35.7105 87.999 35.1147C88.0232 34.7824 88.1257 34.4604 88.2982 34.1745C88.4706 33.8887 88.7083 33.6471 88.992 33.4692Z" fill="#cecece"/>
<path d="M77.4697 55.8544C77.4013 55.8542 77.3344 55.8345 77.2769 55.7976C77.2181 55.7656 77.1691 55.7184 77.1351 55.6609C77.1011 55.6035 77.0835 55.538 77.084 55.4713V48.3359C77.0835 48.2693 77.1011 48.2038 77.1351 48.1463C77.1691 48.0889 77.2181 48.0416 77.2769 48.0096L83.513 44.4632C83.57 44.4287 83.6355 44.4105 83.7023 44.4105C83.7691 44.4105 83.8345 44.4287 83.8916 44.4632C83.9504 44.4952 83.9994 44.5424 84.0334 44.5999C84.0673 44.6573 84.085 44.7228 84.0845 44.7894V51.9107C84.085 51.9773 84.0673 52.0428 84.0334 52.1003C83.9994 52.1577 83.9504 52.205 83.8916 52.237L77.6626 55.7834C77.6057 55.8234 77.5392 55.8478 77.4697 55.8544ZM77.8483 48.5416V54.8117L83.3201 51.6766V45.4207L77.8483 48.5416Z" fill="#FAFAFA"/>
<path d="M84.4344 42.9736C84.2497 42.8956 84.0413 42.8937 83.8552 42.9682C83.669 43.0426 83.5202 43.1875 83.4415 43.3709L80.5842 50.1233L79.8698 49.4637C79.7259 49.3244 79.5321 49.2477 79.3311 49.2504C79.1302 49.2531 78.9385 49.3349 78.7983 49.4778C78.6581 49.6208 78.5809 49.8132 78.5836 50.0127C78.5862 50.2123 78.6686 50.4026 78.8126 50.5418L80.2913 51.9604C80.4332 52.0964 80.6226 52.1726 80.8199 52.1731H80.9699C81.0901 52.148 81.2023 52.0942 81.2969 52.0163C81.3915 51.9384 81.4656 51.8389 81.5128 51.7263L84.7987 43.9241C84.839 43.8381 84.8615 43.745 84.865 43.6503C84.8684 43.5556 84.8527 43.4611 84.8187 43.3725C84.7848 43.2839 84.7333 43.2029 84.6673 43.1344C84.6012 43.0659 84.5221 43.0112 84.4344 42.9736Z" fill="#cecece"/>
<path d="M88.992 44.1582L104.893 35.0367C105.443 34.7246 105.893 34.9516 105.893 35.5474C105.868 35.8804 105.765 36.2028 105.591 36.4887C105.417 36.7745 105.178 37.0158 104.893 37.193L88.992 46.3073C88.4419 46.6265 87.999 46.3995 87.999 45.8037C88.0232 45.4714 88.1257 45.1494 88.2982 44.8636C88.4706 44.5777 88.7083 44.3361 88.992 44.1582Z" fill="#cecece"/>
</svg>
