<svg width="70" height="60" viewBox="0 0 70 60" fill="none" xmlns="http://www.w3.org/2000/svg">
<path d="M69.6828 26.4081L56.3499 4.45439C56.3497 4.45426 56.3496 4.45413 56.3496 4.45413C54.6801 1.70667 51.5702 0 48.233 0C47.4763 0 22.4959 0 21.7668 0C18.4298 0 15.3197 1.70667 13.6498 4.45439L0.317101 26.4081C-0.335869 27.4837 0.051866 28.8603 1.18376 29.4816L12.6341 35.7642C13.5265 36.2538 14.6148 36.1287 15.3559 35.5264V57.75C15.3559 58.9926 16.4158 60 17.7231 60H52.277C53.5843 60 54.6442 58.9926 54.6442 57.75V35.5265C55.3852 36.1284 56.4739 36.2539 57.366 35.7643L68.8163 29.4817C69.9475 28.8606 70.3362 27.4842 69.6828 26.4081ZM39.3993 4.50001C37.345 7.15871 36.8398 8.3023 35 8.3023C33.1667 8.3023 32.6662 7.1734 30.6005 4.50001H39.3993ZM12.9508 30.7419L5.60074 26.7089L7.13924 24.1758L14.4894 28.2085L12.9508 30.7419ZM51.1187 25.4224C51.1184 25.4225 51.1179 25.4228 51.1176 25.4231C50.3355 25.8524 49.9101 26.599 49.9101 27.385V55.5001H49.9099H20.0902V27.3848C20.0902 26.6189 19.6731 25.857 18.8827 25.4229C18.8824 25.4228 18.8819 25.4225 18.8816 25.4223L9.50639 20.2785L17.7501 6.70466C18.5765 5.34496 20.1155 4.50014 21.7671 4.50014H24.7268C28.7713 9.7349 30.262 12.8024 35.0002 12.8024C39.7388 12.8024 41.233 9.7297 45.2737 4.50014H48.2334C49.8846 4.50014 51.4237 5.34483 52.2499 6.70427L60.494 20.2786L51.1187 25.4224ZM57.0492 30.7419L55.5105 28.2086L62.8607 24.1759L64.3992 26.7091L57.0492 30.7419Z" fill="#5F5F61"/>
<path d="M35.0004 21.7363C36.2925 21.7363 37.34 20.7407 37.34 19.5125C37.34 18.2844 36.2925 17.2888 35.0004 17.2888C33.7083 17.2888 32.6609 18.2844 32.6609 19.5125C32.6609 20.7407 33.7083 21.7363 35.0004 21.7363Z" fill="#5F5F61"/>
<path d="M35.0004 30.1184C36.2925 30.1184 37.34 29.1228 37.34 27.8946C37.34 26.6665 36.2925 25.6709 35.0004 25.6709C33.7083 25.6709 32.6609 26.6665 32.6609 27.8946C32.6609 29.1228 33.7083 30.1184 35.0004 30.1184Z" fill="#5F5F61"/>
</svg>
